<?xml version="1.0" encoding="UTF-8"?>
<!DOCTYPE svg PUBLIC "-//W3C//DTD SVG 1.1//EN" "http://www.w3.org/Graphics/SVG/1.1/DTD/svg11.dtd">
<!-- Creator: CorelDRAW X7 -->
<svg xmlns="http://www.w3.org/2000/svg" xml:space="preserve" width="420mm" height="297mm" version="1.1" style="shape-rendering:geometricPrecision; text-rendering:geometricPrecision; image-rendering:optimizeQuality; fill-rule:evenodd; clip-rule:evenodd"
viewBox="0 0 42000 29700"
 xmlns:xlink="http://www.w3.org/1999/xlink">
 <defs>
  <style type="text/css">
   <![CDATA[
    .fil9 {fill:#373435}
    .fil0 {fill:#CACACA}
    .fil2 {fill:#CECECE}
    .fil6 {fill:#D1D1D1}
    .fil7 {fill:#D4D4D4}
    .fil8 {fill:#DEDEDE}
    .fil5 {fill:#E1E1E1}
    .fil3 {fill:#F8F8F8}
    .fil4 {fill:#FBFBFB}
    .fil1 {fill:white}
    .fil10 {fill:#373435;fill-rule:nonzero}
   ]]>
  </style>
 </defs>
 <g id="Capa_x0020_1">
  <metadata id="CorelCorpID_0Corel-Layer"/>
  <g id="_1252008638144">
   <path class="fil0" d="M38887 26074c-88,-664 881,-731 951,-145 34,287 -176,515 -418,543 -266,29 -503,-172 -533,-398zm-3998 -225c439,-424 677,296 285,359 -314,51 -281,-265 -285,-359zm-17363 77c-220,-640 764,-904 915,-289 154,631 -729,830 -915,289zm-4026 -147c-46,-346 417,-382 482,-106 83,355 -444,397 -482,106zm12849 -590c-341,991 -1748,454 -1433,-458 328,-952 1743,-441 1433,458zm6520 -295c-115,-669 837,-772 957,-217 149,686 -855,810 -957,217zm-28857 -863c902,-332 1429,1088 485,1417 -918,320 -1453,-1062 -485,-1417zm7790 78c625,-248 905,712 347,914 -601,218 -974,-665 -347,-914zm17076 467c-51,-361 225,-492 406,-310 170,171 49,461 -305,400l-101 -90zm-20920 -467c28,330 -236,460 -412,278 -177,-181 -44,-436 276,-409l136 131zm31603 1338c-426,3 -309,-11 -612,154l-1394 -1002c69,-215 96,-285 90,-554l2115 -278c175,380 12,161 303,463l-502 1217zm-3013 -2007c930,-301 1434,1125 459,1468 -933,328 -1472,-1139 -459,-1468zm-13682 187c598,-192 853,741 274,916 -591,179 -930,-704 -274,-916zm-4692 1604c-273,-39 -325,-38 -551,101 -60,37 4,8 -70,42l-1363 -997c24,-223 91,-266 72,-563l2138 -278c85,382 155,262 281,472l-507 1223zm-3028 -2014c465,-163 882,166 981,520 131,468 -176,836 -518,945 -923,293 -1450,-1119 -463,-1465zm-13684 185c595,-216 876,709 308,907 -592,205 -933,-681 -308,-907zm17386 -365c593,-174 853,770 242,925 -598,150 -888,-735 -242,-925zm19973 -1939l377 2 844 2134c-215,267 -112,75 -254,400l-2163 338c-62,-268 -213,-402 -360,-550l1556 -2324zm-22147 925c153,-230 687,-962 759,-1167 508,83 328,-120 518,357l706 1799c-62,63 -122,103 -171,195 -38,71 -26,73 -51,131l-77 133 -2096 268c-70,-110 -85,-204 -157,-313 -86,-130 -132,-133 -217,-229l786 -1174zm10847 -3c178,481 216,374 327,586 -268,305 -548,584 -813,887l-813 831c-554,-438 -1283,-143 -1400,372l-1266 -485 -58 -381 4023 -1810zm-5730 279c59,509 -412,412 -465,184 -39,-165 42,-270 156,-302 156,-44 225,44 309,118zm7907 123c122,-280 185,-289 231,-687l1958 149c348,852 756,417 1049,311l3000 1635 -50 432 -2017 289c-114,-166 -201,-313 -492,-324 -277,-10 -371,112 -515,253 -182,-51 -3118,-2005 -3164,-2058zm-23580 -622c67,86 93,203 163,311 55,86 140,180 197,239 -154,228 -1363,1445 -1625,1756 -634,-391 -1221,-254 -1417,359l-1258 -470 -64 -378 4004 -1817zm2192 395c129,-199 214,-378 233,-689l1972 148c79,264 139,402 391,481 324,101 468,-72 629,-176l3016 1643 -61 433 -1991 281c-541,-646 -878,-161 -1032,-60l-3157 -2061zm24014 -811c577,-217 884,721 296,907 -589,186 -939,-666 -296,-907zm-3823 -752c1367,-286 1803,1848 402,2107 -1373,254 -1822,-1809 -402,-2107zm-17577 531c614,-231 887,692 325,894 -587,211 -955,-658 -325,-894zm-3867 -738c1353,-360 1893,1666 562,2061 -1340,398 -2000,-1678 -562,-2061zm25768 952c290,-220 716,-660 1037,-936 644,653 922,726 1744,618l765 2336c-161,60 -302,199 -368,358l-3054 -1637c155,-445 7,-449 -124,-739zm-8118 -689c703,86 844,-323 999,-436l1872 922c-126,445 -122,329 -81,785 -542,150 -3758,1778 -4075,1792 -112,-181 -64,-155 45,-395 60,-132 121,-248 179,-373l1061 -2295zm-13262 488c68,-92 966,-917 1058,-961 504,663 1008,701 1719,620l768 2298c-125,132 -208,112 -389,395l-3031 -1620c79,-333 70,-543 -125,-732zm24234 -119c86,-76 250,-127 353,-187 129,-76 199,-148 283,-233 332,-331 267,-393 424,-635l1945 693c16,203 40,214 102,349 -275,377 -511,762 -789,1164l-782 1178c-379,-88 -353,-136 -776,-41l-760 -2288zm-32358 -589c769,20 767,-247 992,-449l1881 913c-91,355 -120,389 -81,782l-4067 1822c-113,-187 -110,-115 21,-369l1254 -2699zm35811 541c-457,46 -407,-412 -176,-467 272,-66 464,220 176,467zm-24841 -218c512,-111 873,-557 1050,-1025 213,78 1885,650 1924,723l30 55c32,71 99,237 80,304l-667 986c-162,231 -287,439 -443,665 -116,170 -363,493 -436,663 -392,-119 -355,-120 -776,-48l-762 -2323zm3167 -45c-163,-441 214,-561 383,-382 185,197 16,512 -383,382zm12909 -1889c293,-15 289,-24 428,-194l2778 877c26,377 98,526 237,812l-917 848c-332,290 -209,-32 -627,111 -103,35 -196,124 -250,191 -130,162 -33,174 -162,284 -434,-82 -1619,-42 -1920,-176 -166,-641 -150,-574 -556,-965l989 -1788zm-22368 1587c102,-300 450,-835 611,-1137 472,-882 312,-627 591,-701 151,-39 119,-94 237,-164l2758 883c11,393 129,526 230,815 -180,129 -269,248 -442,401l-441 408c-343,317 -222,4 -645,131 -268,80 -277,214 -391,474l-1942 -146c-160,-524 -176,-739 -566,-964zm16691 -1365c456,-134 878,198 960,557 104,456 -201,836 -548,929 -979,265 -1380,-1203 -412,-1486zm-21416 -213c455,-167 871,152 975,480 151,481 -152,862 -488,978 -919,317 -1481,-1093 -487,-1458zm31699 -770c813,-148 1499,478 1610,1158 139,853 -468,1512 -1160,1632 -1784,309 -2379,-2439 -450,-2790zm-21407 -228c836,-157 1513,466 1634,1152 147,841 -455,1514 -1148,1636 -1809,319 -2370,-2434 -486,-2788zm6352 671c584,-227 912,652 355,886 -579,243 -985,-641 -355,-886zm18254 -353c136,220 205,256 508,328l306 1921c-136,33 -134,40 -234,131l-63 59 -1931 -711c61,-661 58,-710 -173,-1257l1587 -471zm-7927 201c85,-61 141,-142 280,-120 358,57 198,763 -287,363l7 -243zm-6971 343c182,119 737,498 897,549 -90,318 -262,477 -84,887 162,374 413,419 547,525l-1362 2903c-41,-14 -115,-28 -166,-47 -154,-58 -62,35 -121,-103l-1040 -5050c228,-36 293,-68 387,-231 161,44 783,462 942,567zm-6495 -763c356,374 91,151 518,322l304 1883c-172,142 -168,41 -256,236l-1978 -699c100,-665 46,-742 -160,-1282l1572 -460zm595 323c95,-64 153,-48 264,-137 82,-66 85,-102 167,-179l1748 796c-24,181 -23,286 11,443 -168,161 -586,401 -806,541 -281,178 -543,384 -834,541l-247 -103 -303 -1902zm-8100 201c-444,113 -549,-234 -333,-403 240,-189 497,54 333,403zm29224 -990c595,-241 931,651 360,885 -587,241 -954,-644 -360,-885zm-16749 -112c277,-107 548,85 613,298 89,291 -87,537 -305,608 -576,188 -921,-672 -308,-906zm-4552 -139c627,-152 778,771 234,924 -641,181 -876,-768 -234,-924zm18350 672c39,-198 375,-1323 452,-1429l2215 1101c-78,276 -73,203 -91,531l-1572 463c-275,-250 -483,-572 -1004,-666zm-15043 -604c77,134 119,179 182,272l-324 897c-424,-114 -468,-67 -749,182l-1774 -779 9 -325 2656 -247zm1776 87c84,-81 146,-158 240,-234 374,-307 1504,-1385 1748,-1557l201 102 260 3246c-285,52 -337,123 -496,279 -440,-210 -1504,-1010 -1825,-1125 88,-392 26,-462 -128,-711zm-7683 -1152l2238 1133c-117,172 -88,275 -90,509l-1590 459c-99,-95 -100,-131 -199,-234 -280,-291 -639,-348 -791,-458l432 -1409zm6408 781c62,102 158,188 97,337 -45,110 -159,182 -321,131 -255,-82 -233,-542 224,-468zm-19116 -760c97,-80 149,-153 245,-233l736 -664 216 109 256 3238c-414,111 -322,181 -507,281l-919 -571c-247,-158 -720,-427 -884,-586 95,-336 37,-418 -135,-664l992 -910zm25107 725c157,-213 348,-537 517,-716 718,232 497,382 1549,135l1189 1799 -99 168c-21,65 -27,119 -15,194 21,131 93,176 163,255l-981 1776c-298,-96 -308,-128 -684,-159 -65,-558 -154,-3520 -205,-3783 -17,-85 -16,-67 -32,-101 -99,251 217,3500 158,3826 -51,125 53,36 -132,103 -274,98 -632,190 -788,605l-1917 -937c191,-540 -39,-724 -226,-1028l1503 -2137zm3960 -160c129,80 309,214 428,264 -22,182 -7,325 166,359 250,48 134,-141 374,-8l1259 810c201,135 415,247 598,395 -103,326 -176,386 -215,815l-2725 -867c-80,-350 -102,-489 -534,-420 -85,-213 -438,-693 -588,-922l-574 -898c234,-160 283,-143 456,-371 201,67 1052,656 1355,843zm-24841 -795c316,110 436,263 888,263 364,0 416,-70 704,-124l1162 1788c-54,158 -285,356 51,607 -49,142 -927,1718 -1001,1800 -267,-135 -419,-94 -677,-177 -1,-48 -157,-3659 -202,-3786 -41,-113 28,-6 -60,-88l192 3903c-617,148 -618,259 -948,642l-1887 -912c152,-839 -53,-681 -219,-1042l1997 -2874zm2091 -274c188,52 737,430 917,549l860 544c16,200 -30,237 110,332 228,120 243,-36 360,-16l1948 1259c-109,299 -199,395 -205,780 -46,1 -2681,-747 -2728,-873l-23 -60c-99,-306 -116,-353 -515,-335 -255,-415 -1029,-1538 -1161,-1799 179,-172 271,-144 437,-381zm-4707 -603c362,-27 1694,-143 1955,-91 181,451 280,674 586,885 -96,202 -358,538 -509,746 -173,239 -333,470 -501,717 -160,234 -333,475 -502,715 -136,192 -360,561 -513,708 -249,-114 -297,-99 -571,-159l-254 -3201c220,-140 162,-113 309,-320zm26208 736c208,-400 322,-456 324,-1079l1947 208c76,137 39,221 152,412 76,127 150,199 250,268 271,186 515,184 865,98l1124 2259c-98,113 -276,207 -511,487 -169,-61 -419,-251 -576,-353l-1127 -718c-443,-272 -213,-180 -422,-483 -198,-25 -234,39 -343,-8l-1683 -1091zm3613 -121c220,-213 209,-168 385,-434l2211 1105 -435 1441c-850,-53 -584,71 -1038,138l-1123 -2250zm-6508 -496c27,39 11,9 44,80 18,37 17,43 33,83l181 370c50,79 284,337 352,391l-2024 2877c-198,-113 -271,-135 -569,-154l-253 -3225c228,-143 177,-63 299,-313l1937 -109zm-18481 385c199,-381 313,-495 313,-1057 325,-43 1548,143 1973,181 124,706 662,1007 1245,781l1125 2272 -524 482c-207,-99 -1933,-1194 -1983,-1305 -3,-9 -6,-19 -9,-28 -166,-442 -166,-113 -490,-245l-1650 -1081zm3725 -221c162,-143 241,-290 296,-329l2180 1107 -434 1438c-581,-47 -588,27 -1039,144l-1121 -2249 118 -111zm12332 -296c309,-206 508,258 248,409 -230,134 -556,-202 -248,-409zm-21322 -268c291,-111 453,367 151,470 -297,102 -513,-332 -151,-470zm29594 -617c900,-330 1457,1060 499,1441 -897,356 -1549,-1056 -499,-1441zm-4456 -737c829,-144 1476,460 1603,1135 156,830 -451,1527 -1132,1649 -859,153 -1525,-450 -1654,-1146 -162,-876 469,-1514 1183,-1638zm-16929 500c942,-323 1454,1144 461,1465 -934,302 -1448,-1127 -461,-1465zm-4451 -734c819,-141 1492,479 1606,1167 140,841 -474,1501 -1154,1623 -1810,327 -2376,-2456 -452,-2790zm30000 434c394,-39 411,-30 760,-124l517 1146c53,163 13,75 -47,207 -127,276 75,304 208,396l286 2051c-174,44 -179,91 -307,133l-2237 -1135 820 -2674zm-21381 -247c424,38 439,-33 774,-107l533 1224c-204,348 -153,344 128,516l283 2029c-81,63 -177,103 -274,169l-2272 -1117 828 -2714zm4446 747c293,-194 494,263 250,413 -196,120 -445,-64 -370,-290 40,-120 60,-83 120,-123zm-2945 878c300,-283 102,-168 183,-417l1304 -1723c163,-210 350,-486 524,-665 199,70 199,102 452,83l391 1635c7,59 11,35 0,91 -2,9 -5,19 -8,27 -37,113 -122,94 -129,278 -5,143 48,163 69,293l-2084 2565c-131,-89 -219,-101 -412,-134l-290 -2033zm18980 -2021c260,254 332,516 828,602 -48,262 -752,2563 -831,2677l-2174 -1103c46,-499 45,-267 -69,-710l2246 -1466zm-4878 -747c482,-401 242,-177 627,-239l766 2093c-92,127 -183,152 -293,316 -100,148 -149,430 -157,408 -2,-6 -7,20 -13,33l-1957 -196c-64,-542 -313,-833 -572,-1086l1599 -1329zm-16505 506c157,195 150,257 345,399 144,105 348,148 488,250l-825 2648 -2192 -1098c44,-417 63,-317 -56,-704l2240 -1495zm-6478 559c164,-82 715,-577 920,-735 491,-380 941,-942 1286,-775 82,39 102,188 129,269 69,199 144,392 218,593 145,391 324,823 441,1215 -201,228 -393,306 -430,754l-1992 -209c-84,-765 -476,-872 -572,-1112zm13309 -724c573,-231 898,686 320,894 -265,96 -551,-45 -627,-278 -49,-152 -32,-295 38,-423 66,-120 124,-135 269,-193zm15464 -1236c1363,-263 1770,1833 400,2108 -1388,278 -1829,-1833 -400,-2108zm1397 831c200,-97 1544,-158 1887,-169 38,228 85,229 155,393l-1400 1804c-142,193 -314,399 -439,580l-218 -39 -552 -1278c106,-141 264,-132 447,-505 126,-259 144,-475 120,-786zm-22846 -1041c1343,-361 1898,1723 512,2077 -1333,341 -1944,-1692 -512,-2077zm8607 967c149,-71 368,-86 515,-165 201,-110 287,-235 397,-281 330,369 2146,1941 2267,2106 -66,165 -203,283 -290,550 -95,291 -75,454 -74,770l-1946 110c-103,-252 -130,-180 -317,-323l-552 -2767zm-5267 -326c54,204 74,221 159,363 -143,279 -1723,2202 -1805,2414 -273,-50 -242,-14 -336,-242 -118,-287 -419,-888 -467,-1119 445,-153 616,-712 565,-1275l1884 -141zm-16123 67c397,-23 680,-183 843,-417 192,76 701,610 901,785l1443 1329c-575,1026 -242,582 -380,1314l-1912 104c-155,-215 -49,-114 -264,-269 -91,-66 -56,13 -98,-162l-202 -1016c-108,-541 -251,-1127 -331,-1668zm17800 -577c127,125 175,173 437,153 53,311 156,653 233,963 77,305 46,189 -60,415 -209,446 242,977 763,724 339,-164 288,-442 225,-843 293,-197 788,-890 1062,-987 89,110 115,123 242,226 -19,203 -151,580 -208,786l-438 1555c-57,220 -3,231 -195,317 -157,71 -173,105 -148,339 95,176 674,234 372,-310 -60,-107 29,-296 67,-433l623 -2206 505 126 562 2777c-68,79 -83,55 -165,125 -262,224 63,299 -232,579 -195,184 -1758,1517 -1833,1669 -372,-70 -604,-75 -775,189 -251,389 69,683 113,758l-740 1749c-68,160 -147,472 -273,528 -104,-142 -238,-835 -293,-1053 200,-89 339,-186 380,-433 43,-253 -61,-425 -212,-518 32,-182 258,-817 352,-928 99,-63 263,-4 374,-145 197,-250 -14,-681 -398,-547 -138,48 -175,190 -248,297 -475,44 -926,89 -1393,134 -644,63 -1686,328 -1233,-205l1654 -2035c267,-329 217,-373 405,-368 245,8 436,-69 424,-346 -12,-257 -212,-347 -470,-322l-408 -1710c285,-238 359,-171 375,-686l554 -334zm-1229 10c598,-170 850,763 245,925 -612,164 -875,-746 -245,-925zm12612 457c-166,334 -512,161 -478,-107 34,-272 503,-313 478,107zm743 2336c-118,-180 -485,-1268 -611,-1615 -304,-839 -15,-388 -30,-792 -8,-196 -87,-111 26,-282l992 -1206 3008 1662c-156,598 -144,469 -23,1085 -209,76 -893,578 -1137,741l-1118 723c-318,-330 -515,-447 -1107,-316zm-22133 -2759c74,475 -390,450 -466,222 -54,-163 31,-291 160,-329 145,-43 215,47 306,107zm18824 -244c314,-135 473,329 198,439 -153,62 -292,-23 -334,-128 -108,-266 128,-307 136,-311zm-18857 655c304,-294 40,-349 143,-541 53,-98 842,-952 982,-1232 237,60 2595,1451 3038,1644 -99,689 -205,137 -19,1110 -274,86 -1973,1340 -2272,1462 -296,-457 -702,-399 -1107,-317l-765 -2126zm-2580 -511c-114,-19 -11,49 -75,-43 -105,-150 47,-447 313,-348 274,102 130,337 28,472 -76,8 -119,26 -195,0 -93,-32 -46,-13 -71,-81zm12821 -358c474,-61 428,378 210,457 -172,62 -295,-30 -327,-150 -42,-155 46,-219 117,-307zm3135 -1056c1379,-268 1776,1838 401,2107 -1376,269 -1829,-1830 -401,-2107zm-21448 -210c633,-177 1179,293 1295,765 348,1406 -1743,1880 -2079,532 -168,-675 260,-1151 784,-1297zm16051 -67c218,-299 286,-235 675,-341 263,-72 528,-158 785,-206 25,41 256,776 871,423 175,-101 109,-122 240,-255l1908 1156c-177,629 -168,824 154,1336l-1033 1016c-252,-202 -436,-240 -771,-72l-288 -1176c638,-550 -539,-1079 -501,-194 -194,100 -379,228 -558,325 -155,-187 -264,-400 -637,-340 -328,52 -350,268 -481,515l-1889 140c-97,-331 -174,-352 -319,-564 169,-241 830,-916 1060,-1204 78,-98 128,-131 214,-227 373,-413 136,-281 570,-332zm12176 -56c300,274 617,121 871,-125l1413 757c-78,158 -161,236 -261,359l-758 938c-453,-188 -693,93 -499,542 -115,71 -1742,1374 -1918,1563 -190,-88 -311,-168 -567,-244l432 -1594c9,-4 23,-7 31,-9 136,-39 545,-115 363,-515l-127 -177c135,-237 353,-535 504,-756 171,-250 340,-507 516,-739zm3376 -481c502,233 704,129 1114,46 64,177 226,421 328,600l677 1167c111,194 235,371 321,569 -145,146 -255,224 -369,414l-2995 -1668 924 -1128zm-24801 260c462,142 522,251 905,-139l1418 789 -1035 1270c-363,-229 -703,125 -482,517l-1938 1583c-205,-117 -304,-152 -545,-247l515 -1610c385,-124 485,-344 185,-668 139,-303 874,-1209 977,-1495zm3405 -489c438,119 600,238 1099,42l1360 2344c-200,167 -342,357 -395,398l-2984 -1641 920 -1143zm24775 912c-71,-90 -159,-154 -115,-311 31,-114 139,-195 302,-157 226,53 327,524 -187,468zm-21143 -699c67,92 169,158 117,314 -38,118 -162,200 -308,164 -225,-54 -338,-536 191,-478zm9833 -1213c327,80 267,106 690,113 53,241 390,1237 359,1378 -26,121 -129,181 -6,337 111,142 119,-12 201,244l568 2013c124,433 313,963 385,1394 -466,64 -637,263 -906,441 -107,-94 -198,-166 -312,-264 -109,-93 -173,-179 -282,-270l-1721 -1598c410,-526 238,-1206 -274,-1689l1298 -2099zm11670 1406c163,-257 361,-532 531,-791 148,-227 419,-595 513,-809l364 116 477 1586c-180,215 -188,104 -116,460l-799 856c-155,190 -675,730 -750,873 -98,-28 -226,-138 -663,-279 58,-376 140,-766 199,-1145 71,-445 116,-158 286,-377 142,-183 31,-366 -42,-490zm-6864 -569c614,-182 810,704 296,905 -603,234 -960,-709 -296,-905zm4297 413c32,-31 2,-7 63,-54 25,-20 40,-28 66,-48 158,-117 182,-205 322,-263 241,118 1392,591 1500,705 71,91 -23,346 318,428l-249 1391c-356,41 -391,54 -681,160l-1339 -2319zm-14852 -524c583,-237 918,663 355,885 -581,229 -984,-628 -355,-885zm-16940 1163c162,-385 1178,-1821 1284,-2131 387,128 298,147 713,115 50,290 397,1197 357,1402 -27,136 -115,187 -8,323 129,162 122,-32 205,239 65,215 121,443 184,664 119,415 738,2493 761,2733 -535,217 -297,1 -901,467l-1451 -1315c-197,-186 -691,-673 -859,-768 79,-283 214,-349 214,-745 0,-483 -250,-815 -499,-984zm30044 -1374c148,448 313,456 458,661 -76,84 -135,175 -225,284 -77,93 -162,200 -233,284 -162,193 -299,391 -469,562l-1420 -797 15 -336 1874 -658zm-16027 -932c296,59 337,3 413,260l430 1444c-157,173 -152,59 -139,356 7,143 -498,656 -628,786l-467 531c-78,98 -151,149 -232,246 -77,91 -142,173 -208,267 -235,-113 -322,-222 -656,-268l244 -1400c357,-117 336,-299 209,-630l1034 -1592zm-7910 1017c641,-172 815,777 257,927 -621,168 -851,-768 -257,-927zm4303 429c22,-27 15,-21 53,-55l348 -312c217,25 1266,552 1568,679 51,366 42,312 296,475l-257 1374c-325,0 -432,68 -671,149l-1337 -2310zm-1776 -741c185,235 12,211 478,630 -40,119 -812,1069 -923,1155l-1429 -783 55 -355 1819 -647zm22382 -1196c623,-125 1148,327 1249,844 277,1418 -1857,1775 -2109,413 -121,-655 322,-1150 860,-1257zm-7036 535c138,23 2991,1511 3065,1590 34,104 17,177 80,323 58,135 63,115 -24,246 -206,308 -856,1190 -933,1401 -252,-10 -399,30 -459,236 -77,265 87,318 183,447l-445 1605c-516,-25 -431,63 -569,-437l-878 -3087c45,-61 437,-411 -150,-530l-380 -1350c251,-94 363,-229 510,-444zm-14411 -745c646,-181 1172,280 1298,761 171,655 -287,1196 -788,1317 -1325,320 -1915,-1684 -510,-2078zm-7466 966c490,-291 304,-257 512,-463l3060 1579c62,654 347,169 -551,1461 -436,626 -235,468 -563,547 -143,34 -241,137 -249,308 -11,240 129,273 196,368l-448 1592 -444 -12 -995 -3498c85,-171 196,-90 136,-398 -45,-90 -240,-103 -260,-156 -5,-13 -20,-8 -38,-12l-356 -1316zm32956 -387c57,142 121,205 262,265 -78,246 -830,1237 -1044,1631 -307,-59 -290,14 -485,120l-1513 -706c126,-298 164,-394 154,-771l2626 -539zm-20596 203c144,-55 249,-45 390,-128 141,-83 145,-145 276,-231l1521 1506 -121 326 -1329 349c-101,-136 -39,-80 -177,-169 -168,-109 -161,-277 -281,-678 -73,-240 -260,-762 -279,-975zm-866 -436c119,59 268,222 343,328l-1019 1563c-287,-17 -325,-6 -490,136l-1538 -700c98,-294 173,-408 158,-784l2546 -543zm9347 -722c466,-159 874,170 974,520 130,456 -169,834 -516,946 -924,298 -1458,-1125 -458,-1466zm-21299 -249c467,-114 809,224 896,567 115,454 -221,854 -565,932 -973,221 -1390,-1240 -331,-1499zm33965 -2c449,-127 835,198 925,548 119,461 -203,853 -559,940 -946,232 -1400,-1195 -366,-1488zm-16196 782c64,-68 139,-129 192,-206 69,-100 70,-183 132,-256l2567 406c16,218 -48,294 39,548 83,245 155,230 251,393l-1308 2103c-181,-59 -288,-129 -515,-150 -187,-17 -453,80 -574,40l-784 -2878zm-5190 -1020c970,-247 1352,1254 379,1495 -1013,251 -1362,-1243 -379,-1495zm-16178 762c224,-174 186,-175 289,-436l2595 407c-37,638 36,580 285,951 -211,358 -445,708 -659,1069 -133,223 -524,889 -664,1028 -440,-185 -556,-202 -1077,-82 -99,-599 -763,-2577 -769,-2937zm27612 -311c162,404 -151,571 -354,388 -201,-181 -53,-533 354,-388zm-6652 -400c599,-215 888,713 300,906 -583,192 -930,-680 -300,-906zm13938 -90c438,214 691,139 896,-264l1189 806c-188,421 -117,432 -54,874l-2560 533c-36,-197 -80,-319 -185,-472l-264 -287c-5,-4 -14,-15 -18,-19l996 -1171zm-29049 266c318,-173 592,156 373,373 -107,107 -282,77 -366,-14 -106,-115 -39,-256 -7,-359zm7653 -492c167,48 327,160 568,81 243,-80 209,-175 355,-332 185,96 398,256 594,387 193,129 444,254 582,411 -174,401 -145,432 -50,865l-2528 531 -61 -118c-248,-622 -204,-343 -476,-688l1016 -1137zm5015 177c204,-91 437,-188 638,-288 369,-183 188,198 614,-65l888 577c-229,615 -75,870 615,923l781 2912c-378,274 -218,151 -509,477 -325,-105 -1563,-1003 -1937,-1131 13,-291 -34,-493 -243,-633 -285,-192 -477,-41 -705,36l-1517 -1501c81,-365 91,-297 87,-716l1288 -591zm16652 -855c575,-146 819,752 234,924 -626,185 -905,-753 -234,-924zm-21405 -226c591,-171 851,770 242,925 -602,153 -889,-737 -242,-925zm18410 304c436,-428 667,298 277,359 -156,24 -189,-44 -284,-129l7 -230zm6677 -113c207,-191 261,-191 467,0 52,489 -524,486 -467,0zm-17036 371c-501,50 -411,-411 -185,-468 146,-36 265,45 303,159 51,153 -44,228 -118,309zm-10567 -247c-298,266 -554,7 -449,-238 90,-211 530,-208 449,238zm-11167 -110c-58,-635 826,-292 334,137l-195 -7 -139 -130zm17506 99c-69,-86 -169,-155 -119,-308 37,-115 156,-198 302,-162 220,55 327,522 -183,470zm7641 -40c-72,-78 -170,-155 -124,-305 38,-120 155,-198 304,-164 239,55 304,524 -180,469zm-21133 -290l0 0zm-4573 940l0 82c889,-221 903,1108 0,891l0 83 353 13c108,334 785,2740 790,2936 -304,198 -284,199 -492,466 -215,-173 -443,-385 -651,-563l0 100c191,105 301,315 602,499 -159,864 -257,494 141,1384l-743 729 0 100 760 -772c138,55 223,140 324,233l-629 2263c-134,472 -50,305 -180,373 -394,206 -185,566 217,437 83,-163 115,-198 -12,-381 -82,-119 -42,-123 14,-315 149,-509 596,-2013 653,-2343 166,35 314,103 509,114l562 2803c-170,152 -363,195 -242,541l-1976 1770 0 211c220,205 218,481 0,684l0 98c67,-54 69,-63 147,-112l919 573c293,180 589,385 880,557 -287,605 -111,1193 475,1362l-1352 2928 -290 -62 -779 -3675 0 353c126,233 602,2801 704,3293l-219 98c-176,-144 -281,-351 -485,-489l0 109c145,127 319,270 406,430 -267,340 -206,335 -118,775 -111,114 -176,213 -288,323l0 116c103,-93 263,-286 329,-401 335,173 599,386 962,-158 359,44 896,370 1270,444 -129,1214 1330,1464 1660,501 150,-440 -51,-594 -160,-872 422,-415 1308,-1327 1605,-1729 574,219 226,248 1039,260l106 1183c-546,306 -187,711 85,699 257,-12 623,-464 -18,-711l-106 -1168c217,-164 290,-108 609,-395 114,50 266,167 376,236 757,483 2165,1462 2821,1828 -30,950 684,904 974,588 153,-168 134,-301 134,-551l1961 -281c80,130 70,209 159,337 69,99 185,195 249,272 -194,121 -731,558 -881,733 -212,-23 -395,-119 -539,58 -101,126 -107,337 11,464 112,121 350,152 489,34 171,-144 86,-313 61,-524 238,-102 714,-661 912,-716 102,-28 380,120 695,30 221,-63 380,-211 452,-357 133,54 1306,902 1405,1011 -65,225 -148,424 30,648 268,339 927,297 993,-241 43,-355 -119,-425 -276,-592l505 -1237c264,41 288,3 491,-20 97,252 249,479 358,722 109,244 -85,117 -41,373 60,344 633,158 442,-182 -117,-208 -213,15 -345,-211 -132,-226 -227,-515 -367,-730 129,-171 351,-412 152,-753 -151,-259 -369,-307 -726,-241 -177,-617 -495,-1300 -747,-1902 -137,-326 -84,-244 -51,-316 115,-254 38,-147 79,-400 540,-307 1085,-777 1619,-1044 112,86 228,175 382,206 32,6 62,9 94,18 101,29 34,-2 92,35l251 961c-72,152 -161,143 -113,407 75,72 205,167 360,69 160,-100 71,-238 53,-377 -14,-113 834,-2120 947,-2281 285,58 199,91 282,500l682 3297c82,398 167,967 281,1323l-212 110c-238,-206 -689,-784 -895,-894 50,-169 158,-314 10,-495 -108,-132 -351,-170 -499,-55 -255,199 -120,740 425,574 320,305 586,608 874,920 -347,405 -127,488 -129,745 -1,99 -833,1085 -984,1269 -184,225 -345,18 -457,228 -49,498 392,389 454,207 141,-413 -394,153 613,-1080 138,-169 281,-402 440,-533 553,393 747,53 959,-182l1251 463c-23,416 -1,574 244,819 413,414 1200,316 1419,-312 159,-453 -49,-599 -145,-886 144,-128 253,-276 385,-425l1236 -1298c444,156 321,292 1010,245l107 1182c-150,94 -295,167 -273,404 17,188 166,318 371,302 359,-28 505,-580 -28,-697l-109 -1188 343 -166c127,-74 170,-142 276,-212 368,162 1201,773 1599,1028 276,176 520,341 804,523 215,137 626,381 791,529 -98,423 140,748 532,754 599,9 558,-577 570,-742l1973 -283c107,249 153,349 326,533l55 64 -865 728c-121,59 -161,-105 -418,-12 -272,99 -270,563 29,646 425,118 504,-241 399,-560 156,-115 780,-690 907,-738 90,-34 434,103 699,33 262,-69 335,-215 493,-350 180,80 504,351 692,484 241,170 473,348 694,520 -266,429 90,986 619,848 194,-51 369,-235 396,-458 42,-354 -149,-431 -282,-587l505 -1225c249,34 240,27 475,-22l73 81 0 -231c-1125,564 -1020,-1301 0,-720l0 -96c-298,-112 -244,-89 -584,-69l-753 -1916c-182,-422 99,-207 9,-674 346,-175 1090,-747 1328,-849l0 -119c-187,92 -1237,773 -1357,893 -355,-163 -250,-22 -393,-899 -55,-340 -161,-805 -171,-1126 264,-136 222,-61 416,-312l1505 661 0 -109c-478,-194 -1005,-441 -1460,-652l7 -305 1453 -141 0 -67 -1483 127c-115,-152 -79,-161 46,-307l1437 -1750 0 -160 -1608 2003c-191,-51 -203,-105 -440,-112 -110,-334 -187,-1211 -242,-1604 -116,-833 50,-292 100,-673 29,-214 -78,-77 83,-290l1662 -2177c5,-6 52,-58 53,-59 38,-40 24,-27 60,-54 100,44 193,82 332,96l0 -72c-687,-91 -634,-904 0,-970l0 -72c-164,11 -286,59 -389,154 -158,145 -107,187 -200,370l-1897 140c-59,-272 -191,-396 -309,-563l1192 -1345c286,-299 226,-405 503,-411 313,-8 110,-135 368,-232l732 -189 0 -73 -811 213c-109,-106 -9,-68 -161,-164 -147,-93 -87,24 -157,-174l-444 -1493c436,-99 448,-143 687,-366l886 872 0 -138 -842 -816c82,-273 144,-360 76,-695 237,-107 509,-247 766,-339l0 -77 -774 333 -315 -390c72,-124 222,-290 318,-415 120,-155 191,-244 307,-394 238,31 311,12 464,-85l0 -469c-150,-83 -339,-178 -515,-14 -225,210 -30,353 -51,508 -8,63 -539,715 -616,811 -565,-198 -812,-93 -1146,229l-1195 -792c-67,-244 -42,-394 -206,-532 -302,-254 -781,-134 -899,238 -88,277 34,382 89,570l-1031 1139c-380,-125 -409,-177 -883,-133l-435 -1301c129,-105 240,-98 271,-307 92,-627 -937,-464 -642,114 112,220 215,52 318,274l417 1252c-342,84 -494,249 -683,459l-1423 -749c205,-744 -814,-289 -337,36 184,108 202,-47 498,124 141,81 262,149 406,219 230,112 608,299 820,436 -232,414 -129,486 -170,952l-1858 656c-81,-206 -231,-377 -540,-363 -286,12 -406,181 -526,388l-3052 -1577c31,-248 54,-274 17,-549 237,-136 791,-216 1100,-266 47,152 82,236 253,269 556,109 578,-738 34,-675 -239,27 -204,129 -284,242 -79,112 -85,74 -347,132 -263,59 -534,130 -800,176 -278,-485 -404,-401 -749,-542 8,-254 97,-597 139,-858 42,-267 -4,-199 174,-304 446,-265 -36,-878 -410,-560 -90,77 -259,468 176,603 -16,134 -144,1001 -226,1137 -376,62 -607,243 -729,536l-2657 -415c-52,-234 -119,-337 -284,-422l213 -522c677,-59 475,-594 250,-674 -386,-137 -691,306 -307,636l-211 507c-375,-87 -379,4 -641,111 -95,-92 -276,-195 -405,-281 -692,-461 -407,-240 -502,-534 -28,-86 -82,-135 -189,-146 -276,-27 -252,176 -303,357l-2100 933c-121,-236 -168,-237 -286,-399 95,-170 474,-596 613,-810 303,51 637,-36 518,-431 -76,-255 -480,-307 -616,-86 -125,202 -17,289 4,427 21,133 -485,586 -587,840 -701,-110 -485,-254 -1194,234l-1207 -800c44,-1129 -1591,-638 -979,263 -185,221 -828,964 -1054,1162 -389,-163 -410,-136 -873,-142l-436 -1284c8,-7 19,-14 25,-18 502,-335 152,-637 53,-675 -353,-137 -617,235 -431,509 118,175 217,72 304,252l413 1260c-377,81 -489,281 -678,447 -465,-213 -989,-505 -1426,-753 88,-205 -32,-453 -287,-376 -205,62 -203,301 -36,441 271,92 140,-85 479,107l1231 645c-154,429 -212,418 -151,956l-1839 659c-86,-65 -101,-153 -221,-246 -477,-369 -804,175 -888,271l-3024 -1598 -8 -550 1079 -231c78,116 119,222 269,258 548,134 587,-711 69,-676 -205,13 -225,94 -293,213 -86,148 -142,118 -321,156 -281,59 -549,138 -831,179 -201,-252 -340,-473 -776,-523l195 -1114c544,-213 284,-702 -45,-700 -393,3 -487,463 -56,703l-190 1083c-459,228 -299,-59 -788,558 -269,-21 -2504,-367 -2611,-427 -58,-79 -65,-162 -126,-250 -60,-87 -113,-113 -164,-191 34,-80 160,-448 223,-465 8,-3 21,-8 31,-10l94 -20c424,-92 351,-562 91,-660 -207,-79 -402,42 -457,190 -86,234 46,320 155,452l-224 477 -405 15z"/>
   <path class="fil1" d="M19850 11702c-16,515 -90,448 -375,686l408 1710c258,-25 458,65 470,322 12,277 -179,354 -424,346 -188,-5 -138,39 -405,368l-1654 2035c-453,533 589,268 1233,205 467,-45 918,-90 1393,-134 73,-107 110,-249 248,-297 384,-134 595,297 398,547 -111,141 -275,82 -374,145 -94,111 -320,746 -352,928 151,93 255,265 212,518 -41,247 -180,344 -380,433 55,218 189,911 293,1053 126,-56 205,-368 273,-528l740 -1749c-44,-75 -364,-369 -113,-758 171,-264 403,-259 775,-189 75,-152 1638,-1485 1833,-1669 295,-280 -30,-355 232,-579 82,-70 97,-46 165,-125l-562 -2777 -505 -126 -623 2206c-38,137 -127,326 -67,433 302,544 -277,486 -372,310 -25,-234 -9,-268 148,-339 192,-86 138,-97 195,-317l438 -1555c57,-206 189,-583 208,-786 -127,-103 -153,-116 -242,-226 -274,97 -769,790 -1062,987 63,401 114,679 -225,843 -521,253 -972,-278 -763,-724 106,-226 137,-110 60,-415 -77,-310 -180,-652 -233,-963 -262,20 -310,-28 -437,-153l-554 334z"/>
   <path class="fil1" d="M4118 18918c166,361 371,203 219,1042l1887 912c330,-383 331,-494 948,-642l-192 -3903c88,82 19,-25 60,88 45,127 201,3738 202,3786 258,83 410,42 677,177 74,-82 952,-1658 1001,-1800 -336,-251 -105,-449 -51,-607l-1162 -1788c-288,54 -340,124 -704,124 -452,0 -572,-153 -888,-263l-1997 2874z"/>
   <path class="fil1" d="M25493 19136c187,304 417,488 226,1028l1917 937c156,-415 514,-507 788,-605 185,-67 81,22 132,-103 59,-326 -257,-3575 -158,-3826 16,34 15,16 32,101 51,263 140,3225 205,3783 376,31 386,63 684,159l981 -1776c-70,-79 -142,-124 -163,-255 -12,-75 -6,-129 15,-194l99 -168 -1189 -1799c-1052,247 -831,97 -1549,-135 -169,179 -360,503 -517,716l-1503 2137z"/>
   <path class="fil1" d="M18343 9621c-434,51 -197,-81 -570,332 -86,96 -136,129 -214,227 -230,288 -891,963 -1060,1204 145,212 222,233 319,564l1889 -140c131,-247 153,-463 481,-515 373,-60 482,153 637,340 179,-97 364,-225 558,-325 -38,-885 1139,-356 501,194l288 1176c335,-168 519,-130 771,72l1033 -1016c-322,-512 -331,-707 -154,-1336l-1908 -1156c-131,133 -65,154 -240,255 -615,353 -846,-382 -871,-423 -257,48 -522,134 -785,206 -389,106 -457,42 -675,341z"/>
   <path class="fil1" d="M18550 6375c4,419 -6,351 -87,716l1517 1501c228,-77 420,-228 705,-36 209,140 256,342 243,633 374,128 1612,1026 1937,1131 291,-326 131,-203 509,-477l-781 -2912c-690,-53 -844,-308 -615,-923l-888 -577c-426,263 -245,-118 -614,65 -201,100 -434,197 -638,288l-1288 591z"/>
   <path class="fil1" d="M3275 9744c249,169 499,501 499,984 0,396 -135,462 -214,745 168,95 662,582 859,768l1451 1315c604,-466 366,-250 901,-467 -23,-240 -642,-2318 -761,-2733 -63,-221 -119,-449 -184,-664 -83,-271 -76,-77 -205,-239 -107,-136 -19,-187 8,-323 40,-205 -307,-1112 -357,-1402 -415,32 -326,13 -713,-115 -106,310 -1122,1746 -1284,2131z"/>
   <path class="fil1" d="M24666 9954c512,483 684,1163 274,1689l1721 1598c109,91 173,177 282,270 114,98 205,170 312,264 269,-178 440,-377 906,-441 -72,-431 -261,-961 -385,-1394l-568 -2013c-82,-256 -90,-102 -201,-244 -123,-156 -20,-216 6,-337 31,-141 -306,-1137 -359,-1378 -423,-7 -363,-33 -690,-113l-1298 2099z"/>
   <path class="fil1" d="M32530 14171c592,-131 789,-14 1107,316l1118 -723c244,-163 928,-665 1137,-741 -121,-616 -133,-487 23,-1085l-3008 -1662 -992 1206c-113,171 -34,86 -26,282 15,404 -274,-47 30,792 126,347 493,1435 611,1615z"/>
   <path class="fil1" d="M10364 11823l765 2126c405,-82 811,-140 1107,317 299,-122 1998,-1376 2272,-1462 -186,-973 -80,-421 19,-1110 -443,-193 -2801,-1584 -3038,-1644 -140,280 -929,1134 -982,1232 -103,192 161,247 -143,541z"/>
   <path class="fil1" d="M26745 7926l380 1350c587,119 195,469 150,530l878 3087c138,500 53,412 569,437l445 -1605c-96,-129 -260,-182 -183,-447 60,-206 207,-246 459,-236 77,-211 727,-1093 933,-1401 87,-131 82,-111 24,-246 -63,-146 -46,-219 -80,-323 -74,-79 -2927,-1567 -3065,-1590 -147,215 -259,350 -510,444z"/>
   <path class="fil1" d="M5378 7703l356 1316c18,4 33,-1 38,12 20,53 215,66 260,156 60,308 -51,227 -136,398l995 3498 444 12 448 -1592c-67,-95 -207,-128 -196,-368 8,-171 106,-274 249,-308 328,-79 127,79 563,-547 898,-1292 613,-807 551,-1461l-3060 -1579c-208,206 -22,172 -512,463z"/>
   <path class="fil1" d="M30367 18857l-989 1788c406,391 390,324 556,965 301,134 1486,94 1920,176 129,-110 32,-122 162,-284 54,-67 147,-156 250,-191 418,-143 295,179 627,-111l917 -848c-139,-286 -211,-435 -237,-812l-2778 -877c-139,170 -135,179 -428,194z"/>
   <path class="fil1" d="M7999 20444c390,225 406,440 566,964l1942 146c114,-260 123,-394 391,-474 423,-127 302,186 645,-131l441 -408c173,-153 262,-272 442,-401 -101,-289 -219,-422 -230,-815l-2758 -883c-118,70 -86,125 -237,164 -279,74 -119,-181 -591,701 -161,302 -509,837 -611,1137z"/>
   <path class="fil1" d="M29698 22422c46,53 2982,2007 3164,2058 144,-141 238,-263 515,-253 291,11 378,158 492,324l2017 -289 50 -432 -3000 -1635c-293,106 -701,541 -1049,-311l-1958 -149c-46,398 -109,407 -231,687z"/>
   <path class="fil1" d="M8310 22195l3157 2061c154,-101 491,-586 1032,60l1991 -281 61 -433 -3016 -1643c-161,104 -305,277 -629,176 -252,-79 -312,-217 -391,-481l-1972 -148c-19,311 -104,490 -233,689z"/>
   <path class="fil1" d="M843 12337l0 4723 1976 -1770c-121,-346 72,-389 242,-541l-562 -2803c-195,-11 -343,-79 -509,-114 -57,330 -504,1834 -653,2343 -56,192 -96,196 -14,315 127,183 95,218 12,381 -402,129 -611,-231 -217,-437 130,-68 46,99 180,-373l629 -2263c-101,-93 -186,-178 -324,-233l-760 772z"/>
   <path class="fil1" d="M16944 15110l290 2033c193,33 281,45 412,134l2084 -2565c-21,-130 -74,-150 -69,-293 7,-184 92,-165 129,-278 3,-8 6,-18 8,-27 11,-56 7,-32 0,-91l-391 -1635c-253,19 -253,-13 -452,-83 -174,179 -361,455 -524,665l-1304 1723c-81,249 117,134 -183,417z"/>
   <path class="fil1" d="M8331 15671l1650 1081c324,132 324,-197 490,245 3,9 6,19 9,28 50,111 1776,1206 1983,1305l524 -482 -1125 -2272c-583,226 -1121,-75 -1245,-781 -425,-38 -1648,-224 -1973,-181 0,562 -114,676 -313,1057z"/>
   <path class="fil1" d="M29707 15903l1683 1091c109,47 145,-17 343,8 209,303 -21,211 422,483l1127 718c157,102 407,292 576,353 235,-280 413,-374 511,-487l-1124 -2259c-350,86 -594,88 -865,-98 -100,-69 -174,-141 -250,-268 -113,-191 -76,-275 -152,-412l-1947 -208c-2,623 -116,679 -324,1079z"/>
   <path class="fil1" d="M30519 9565c-176,232 -345,489 -516,739 -151,221 -369,519 -504,756l127 177c182,400 -227,476 -363,515 -8,2 -22,5 -31,9l-432 1594c256,76 377,156 567,244 176,-189 1803,-1492 1918,-1563 -194,-449 46,-730 499,-542l758 -938c100,-123 183,-201 261,-359l-1413 -757c-254,246 -571,399 -871,125z"/>
   <path class="fil1" d="M21945 18394l1040 5050c59,138 -33,45 121,103 51,19 125,33 166,47l1362 -2903c-134,-106 -385,-151 -547,-525 -178,-410 -6,-569 84,-887 -160,-51 -715,-430 -897,-549 -159,-105 -781,-523 -942,-567 -94,163 -159,195 -387,231z"/>
   <path class="fil1" d="M9094 9344c-103,286 -838,1192 -977,1495 300,324 200,544 -185,668l-515 1610c241,95 340,130 545,247l1938 -1583c-221,-392 119,-746 482,-517l1035 -1270 -1418 -789c-383,390 -443,281 -905,139z"/>
   <path class="fil1" d="M843 18053l0 1571 779 3675 290 62 1352 -2928c-586,-169 -762,-757 -475,-1362 -291,-172 -587,-377 -880,-557l-919 -573c-78,49 -80,58 -147,112z"/>
   <path class="fil1" d="M1321 6634c6,360 670,2338 769,2937 521,-120 637,-103 1077,82 140,-139 531,-805 664,-1028 214,-361 448,-711 659,-1069 -249,-371 -322,-313 -285,-951l-2595 -407c-103,261 -65,262 -289,436z"/>
   <path class="fil1" d="M22689 6892l784 2878c121,40 387,-57 574,-40 227,21 334,91 515,150l1308 -2103c-96,-163 -168,-148 -251,-393 -87,-254 -23,-330 -39,-548l-2567 -406c-62,73 -63,156 -132,256 -53,77 -128,138 -192,206z"/>
   <path class="fil1" d="M24707 20688l-1061 2295c-58,125 -119,241 -179,373 -109,240 -157,214 -45,395 317,-14 3533,-1642 4075,-1792 -41,-456 -45,-340 81,-785l-1872 -922c-155,113 -296,522 -999,436z"/>
   <path class="fil1" d="M3321 20468l-1254 2699c-131,254 -134,182 -21,369l4067 -1822c-39,-393 -10,-427 81,-782l-1881 -913c-225,202 -223,469 -992,449z"/>
   <path class="fil1" d="M2604 11945c80,541 223,1127 331,1668l202 1016c42,175 7,96 98,162 215,155 109,54 264,269l1912 -104c138,-732 -195,-288 380,-1314l-1443 -1329c-200,-175 -709,-709 -901,-785 -163,234 -446,394 -843,417z"/>
   <path class="fil1" d="M23994 12204l552 2767c187,143 214,71 317,323l1946 -110c-1,-316 -21,-479 74,-770 87,-267 224,-385 290,-550 -121,-165 -1937,-1737 -2267,-2106 -110,46 -196,171 -397,281 -147,79 -366,94 -515,165z"/>
   <path class="fil1" d="M40682 15497l0 -2870c-139,-14 -232,-52 -332,-96 -36,27 -22,14 -60,54 -1,1 -48,53 -53,59l-1662 2177c-161,213 -54,76 -83,290 -50,381 -216,-160 -100,673 55,393 132,1270 242,1604 237,7 249,61 440,112l1608 -2003z"/>
   <path class="fil1" d="M3499 15167c-147,207 -89,180 -309,320l254 3201c274,60 322,45 571,159 153,-147 377,-516 513,-708 169,-240 342,-481 502,-715 168,-247 328,-478 501,-717 151,-208 413,-544 509,-746 -306,-211 -405,-434 -586,-885 -261,-52 -1593,64 -1955,91z"/>
   <path class="fil1" d="M24875 15395c-122,250 -71,170 -299,313l253 3225c298,19 371,41 569,154l2024 -2877c-68,-54 -302,-312 -352,-391l-181 -370c-16,-40 -15,-46 -33,-83 -33,-71 -17,-41 -44,-80l-1937 109z"/>
   <path class="fil1" d="M35679 21057l760 2288c423,-95 397,-47 776,41l782 -1178c278,-402 514,-787 789,-1164 -62,-135 -86,-146 -102,-349l-1945 -693c-157,242 -92,304 -424,635 -84,85 -154,157 -283,233 -103,60 -267,111 -353,187z"/>
   <path class="fil1" d="M14291 20791l762 2323c421,-72 384,-71 776,48 73,-170 320,-493 436,-663 156,-226 281,-434 443,-665l667 -986c19,-67 -48,-233 -80,-304l-30 -55c-39,-73 -1711,-645 -1924,-723 -177,468 -538,914 -1050,1025z"/>
   <path class="fil1" d="M11445 21176c195,189 204,399 125,732l3031 1620c181,-283 264,-263 389,-395l-768 -2298c-711,81 -1215,43 -1719,-620 -92,44 -990,869 -1058,961z"/>
   <path class="fil1" d="M32825 21377c131,290 279,294 124,739l3054 1637c66,-159 207,-298 368,-358l-765 -2336c-822,108 -1100,35 -1744,-618 -321,276 -747,716 -1037,936z"/>
   <path class="fil1" d="M15443 13485l-828 2714 2272 1117c97,-66 193,-106 274,-169l-283 -2029c-281,-172 -332,-168 -128,-516l-533 -1224c-335,74 -350,145 -774,107z"/>
   <path class="fil1" d="M36824 13732l-820 2674 2237 1135c128,-42 133,-89 307,-133l-286 -2051c-133,-92 -335,-120 -208,-396 60,-132 100,-44 47,-207l-517 -1146c-349,94 -366,85 -760,124z"/>
   <path class="fil1" d="M7769 16151c132,261 906,1384 1161,1799 399,-18 416,29 515,335l23 60c47,126 2682,874 2728,873 6,-385 96,-481 205,-780l-1948 -1259c-117,-20 -132,136 -360,16 -140,-95 -94,-132 -110,-332l-860 -544c-180,-119 -729,-497 -917,-549 -166,237 -258,209 -437,381z"/>
   <path class="fil1" d="M29145 16367l574 898c150,229 503,709 588,922 432,-69 454,70 534,420l2725 867c39,-429 112,-489 215,-815 -183,-148 -397,-260 -598,-395l-1259 -810c-240,-133 -124,56 -374,8 -173,-34 -188,-177 -166,-359 -119,-50 -299,-184 -428,-264 -303,-187 -1154,-776 -1355,-843 -173,228 -222,211 -456,371z"/>
   <path class="fil1" d="M33678 14555c114,443 115,211 69,710l2174 1103c79,-114 783,-2415 831,-2677 -496,-86 -568,-348 -828,-602l-2246 1466z"/>
   <path class="fil1" d="M12301 14343c119,387 100,287 56,704l2192 1098 825 -2648c-140,-102 -344,-145 -488,-250 -195,-142 -188,-204 -345,-399l-2240 1495z"/>
   <path class="fil1" d="M8063 13407c96,240 488,347 572,1112l1992 209c37,-448 229,-526 430,-754 -117,-392 -296,-824 -441,-1215 -74,-201 -149,-394 -218,-593 -27,-81 -47,-230 -129,-269 -345,-167 -795,395 -1286,775 -205,158 -756,653 -920,735z"/>
   <path class="fil1" d="M29447 13671c259,253 508,544 572,1086l1957 196c6,-13 11,-39 13,-33 8,22 57,-260 157,-408 110,-164 201,-189 293,-316l-766 -2093c-385,62 -145,-162 -627,239l-1599 1329z"/>
   <path class="fil1" d="M22280 17405c154,249 216,319 128,711 321,115 1385,915 1825,1125 159,-156 211,-227 496,-279l-260 -3246 -201 -102c-244,172 -1374,1250 -1748,1557 -94,76 -156,153 -240,234z"/>
   <path class="fil1" d="M897 17184c172,246 230,328 135,664 164,159 637,428 884,586l919 571c185,-100 93,-170 507,-281l-256 -3238 -216 -109 -736 664c-96,80 -148,153 -245,233l-992 910z"/>
   <path class="fil1" d="M23498 23830l58 381 1266 485c117,-515 846,-810 1400,-372l813 -831c265,-303 545,-582 813,-887 -111,-212 -149,-105 -327,-586l-4023 1810z"/>
   <path class="fil1" d="M2114 23617l64 378 1258 470c196,-613 783,-750 1417,-359 262,-311 1471,-1528 1625,-1756 -57,-59 -142,-153 -197,-239 -70,-108 -96,-225 -163,-311l-4004 1817z"/>
   <path class="fil1" d="M16258 9030c127,331 148,513 -209,630l-244 1400c334,46 421,155 656,268 66,-94 131,-176 208,-267 81,-97 154,-148 232,-246l467 -531c130,-130 635,-643 628,-786 -13,-297 -18,-183 139,-356l-430 -1444c-76,-257 -117,-201 -413,-260l-1034 1592z"/>
   <path class="fil1" d="M40682 11513l0 -2076 -732 189c-258,97 -55,224 -368,232 -277,6 -217,112 -503,411l-1192 1345c118,167 250,291 309,563l1897 -140c93,-183 42,-225 200,-370 103,-95 225,-143 389,-154z"/>
   <path class="fil1" d="M37634 9261c73,124 184,307 42,490 -170,219 -215,-68 -286,377 -59,379 -141,769 -199,1145 437,141 565,251 663,279 75,-143 595,-683 750,-873l799 -856c-72,-356 -64,-245 116,-460l-477 -1586 -364 -116c-94,214 -365,582 -513,809 -170,259 -368,534 -531,791z"/>
   <path class="fil1" d="M7040 15334c117,-201 56,-678 603,-487 51,136 111,520 19,663 -74,79 34,37 -141,68l-629 0c-464,1 -531,114 -527,-349 2,-252 24,-519 355,-419 251,76 199,350 320,524zm-555 -732c50,-155 70,-8 98,-226 14,-111 -20,-566 458,-565 471,1 430,507 439,568 37,234 47,64 111,227 -174,121 -901,187 -1106,-4zm339 -1304c-1924,334 -1358,3117 452,2790 680,-122 1294,-782 1154,-1623 -114,-688 -787,-1308 -1606,-1167z"/>
   <path class="fil1" d="M27754 15339c0,-281 192,-405 425,-263 139,85 167,322 235,509 102,-191 88,-429 237,-514 486,-276 451,433 404,713 -377,45 -757,25 -1136,25 -211,0 -165,-99 -165,-470zm101 -519c70,-140 88,-15 114,-229 16,-136 -15,-159 41,-302 134,-339 695,-332 820,33 48,140 16,185 38,302 32,163 85,98 88,238 -254,105 -915,135 -1101,-42zm349 -1288c-714,124 -1345,762 -1183,1638 129,696 795,1299 1654,1146 681,-122 1288,-819 1132,-1649 -127,-675 -774,-1279 -1603,-1135z"/>
   <path class="fil1" d="M15888 23197c85,96 131,99 217,229 72,109 87,203 157,313l2096 -268 77 -133c25,-58 13,-60 51,-131 49,-92 109,-132 171,-195l-706 -1799c-190,-477 -10,-274 -518,-357 -72,205 -606,937 -759,1167l-786 1174z"/>
   <path class="fil1" d="M37265 23422c147,148 298,282 360,550l2163 -338c142,-325 39,-133 254,-400l-844 -2134 -377 -2 -1556 2324z"/>
   <path class="fil1" d="M13571 19328c55,112 154,214 216,326 102,-81 185,-216 251,-328 358,-8 600,5 508,626 -1,3 -2,100 -58,147 -102,59 -1205,86 -1349,21 -133,-60 -76,-555 -67,-597 51,-229 258,-206 499,-195zm64 -905c570,-229 811,601 343,793 -542,223 -863,-585 -343,-793zm-69 -555c-1884,354 -1323,3107 486,2788 693,-122 1295,-795 1148,-1636 -121,-686 -798,-1309 -1634,-1152z"/>
   <path class="fil1" d="M35186 19869c102,-102 194,-271 255,-301 191,-44 411,-28 465,140 19,60 57,515 -27,604 -94,101 -906,60 -1176,56 -189,-2 -244,-2 -258,-193 -21,-302 -40,-581 233,-619 392,-55 316,161 508,313zm-161 -1205c531,-255 824,553 350,775 -462,215 -950,-486 -350,-775zm-52 -568c-1929,351 -1334,3099 450,2790 692,-120 1299,-779 1160,-1632 -111,-680 -797,-1306 -1610,-1158z"/>
   <path class="fil1" d="M11579 9998l2984 1641c53,-41 195,-231 395,-398l-1360 -2344c-499,196 -661,77 -1099,-42l-920 1143z"/>
   <path class="fil1" d="M32971 10212l2995 1668c114,-190 224,-268 369,-414 -86,-198 -210,-375 -321,-569l-677 -1167c-102,-179 -264,-423 -328,-600 -410,83 -612,187 -1114,-46l-924 1128z"/>
   <path class="fil1" d="M14823 5607l-1016 1137c272,345 228,66 476,688l61 118 2528 -531c-95,-433 -124,-464 50,-865 -138,-157 -389,-282 -582,-411 -196,-131 -409,-291 -594,-387 -146,157 -112,252 -355,332 -241,79 -401,-33 -568,-81z"/>
   <path class="fil1" d="M36219 5833l-996 1171c4,4 13,15 18,19l264 287c105,153 149,275 185,472l2560 -533c-63,-442 -134,-453 54,-874l-1189 -806c-205,403 -458,478 -896,264z"/>
   <path class="fil1" d="M15207 18427c206,540 260,617 160,1282l1978 699c88,-195 84,-94 256,-236l-304 -1883c-427,-171 -162,52 -518,-322l-1572 460z"/>
   <path class="fil1" d="M36585 18657c231,547 234,596 173,1257l1931 711 63 -59c100,-91 98,-98 234,-131l-306 -1921c-303,-72 -372,-108 -508,-328l-1587 471z"/>
   <path class="fil1" d="M11938 15561l1121 2249c451,-117 458,-191 1039,-144l434 -1438 -2180 -1107c-55,39 -134,186 -296,329l-118 111z"/>
   <path class="fil1" d="M33320 15782l1123 2250c454,-67 188,-191 1038,-138l435 -1441 -2211 -1105c-176,266 -165,221 -385,434z"/>
   <path class="fil1" d="M38233 12278c24,311 6,527 -120,786 -183,373 -341,364 -447,505l552 1278 218 39c125,-181 297,-387 439,-580l1400 -1804c-70,-164 -117,-165 -155,-393 -343,11 -1687,72 -1887,169z"/>
   <path class="fil1" d="M16843 12019c51,563 -120,1122 -565,1275 48,231 349,832 467,1119 94,228 63,192 336,242 82,-212 1662,-2135 1805,-2414 -85,-142 -105,-159 -159,-363l-1884 141z"/>
   <path class="fil1" d="M14326 7626c15,376 -60,490 -158,784l1538 700c165,-142 203,-153 490,-136l1019 -1563c-75,-106 -224,-269 -343,-328l-2546 543z"/>
   <path class="fil1" d="M35708 7855c10,377 -28,473 -154,771l1513 706c195,-106 178,-179 485,-120 214,-394 966,-1385 1044,-1631 -141,-60 -205,-123 -262,-265l-2626 539z"/>
   <path class="fil1" d="M13685 8884l1337 2310c239,-81 346,-149 671,-149l257 -1374c-254,-163 -245,-109 -296,-475 -302,-127 -1351,-654 -1568,-679l-348 312c-38,34 -31,28 -53,55z"/>
   <path class="fil1" d="M35067 9105l1339 2319c290,-106 325,-119 681,-160l249 -1391c-341,-82 -247,-337 -318,-428 -108,-114 -1259,-587 -1500,-705 -140,58 -164,146 -322,263 -26,20 -41,28 -66,48 -61,47 -31,23 -63,54z"/>
   <path class="fil1" d="M40682 23271l0 -3508c-238,102 -982,674 -1328,849 90,467 -191,252 -9,674l753 1916c340,-20 286,-43 584,69z"/>
   <path class="fil1" d="M35547 17922c521,94 729,416 1004,666l1572 -463c18,-328 13,-255 91,-531l-2215 -1101c-77,106 -413,1231 -452,1429z"/>
   <path class="fil1" d="M14165 17662c152,110 511,167 791,458 99,103 100,139 199,234l1590 -459c2,-234 -27,-337 90,-509l-2238 -1133 -432 1409z"/>
   <path class="fil1" d="M17374 18290l303 1902 247 103c291,-157 553,-363 834,-541 220,-140 638,-380 806,-541 -34,-157 -35,-262 -11,-443l-1748 -796c-82,77 -85,113 -167,179 -111,89 -169,73 -264,137z"/>
   <path class="fil1" d="M18681 24008c-126,-210 -196,-90 -281,-472l-2138 278c19,297 -48,340 -72,563l1363 997c74,-34 10,-5 70,-42 226,-139 278,-140 551,-101l507 -1223z"/>
   <path class="fil1" d="M40063 24230c-291,-302 -128,-83 -303,-463l-2115 278c6,269 -21,339 -90,554l1394 1002c303,-165 186,-151 612,-154l502 -1217z"/>
   <path class="fil1" d="M40682 19644l0 -783 -1505 -661c-194,251 -152,176 -416,312 10,321 116,786 171,1126 143,877 38,736 393,899 120,-120 1170,-801 1357,-893z"/>
   <path class="fil1" d="M15174 12886c-87,-201 -77,-748 283,-545 109,61 125,240 184,373 85,-154 53,-321 199,-385 324,-142 302,219 302,391 0,245 -153,178 -396,175 -190,-1 -384,12 -572,-9zm79 -769c59,-265 61,-558 382,-561 364,-3 337,366 354,450l55 161c-174,119 -642,101 -795,17l4 -67zm134 -880c-1432,385 -821,2418 512,2077 1386,-354 831,-2438 -512,-2077z"/>
   <path class="fil1" d="M37051 12926c58,-303 82,-450 431,-360 55,141 75,374 11,544 -184,35 -384,14 -574,16 -306,3 -404,81 -410,-218 -12,-565 345,-391 418,-233 39,84 28,148 124,251zm370 -516c-138,74 -549,91 -718,43 -169,-48 -74,-126 -73,-128 93,-243 19,-213 88,-359 83,-176 374,-244 540,-100 75,65 172,466 163,544zm-585 -963c-1429,275 -988,2386 400,2108 1370,-275 963,-2371 -400,-2108z"/>
   <path class="fil1" d="M17738 7519c19,213 206,735 279,975 120,401 113,569 281,678 138,89 76,33 177,169l1329 -349 121 -326 -1521 -1506c-131,86 -135,148 -276,231 -141,83 -246,73 -390,128z"/>
   <path class="fil1" d="M28162 21777l340 -56 182 249 198 -239c192,0 198,-4 339,51 31,109 79,452 -10,533 -131,69 -892,61 -1044,9 -62,-126 -43,-402 -5,-547zm417 -733c438,-159 591,481 230,611 -409,147 -644,-460 -230,-611zm-78 -412c-1420,298 -971,2361 402,2107 1401,-259 965,-2393 -402,-2107z"/>
   <path class="fil1" d="M7077 21500c133,61 150,161 245,245 60,-80 114,-161 161,-240 168,-8 312,-30 367,113 25,64 27,180 25,251l-59 232c-103,28 -871,49 -985,8 -114,-41 -106,-276 -83,-422 31,-194 117,-185 329,-187zm98 -682c419,-181 631,438 288,592 -463,208 -652,-434 -288,-592zm-118 -393c-1438,383 -778,2459 562,2061 1331,-395 791,-2421 -562,-2061z"/>
   <path class="fil1" d="M13659 8420l-938 11c-259,0 -193,-256 -153,-554 352,-163 387,-7 528,187 253,-284 124,-265 515,-218 85,191 60,360 48,574zm-686 -1283c418,-184 637,443 283,590 -459,190 -664,-422 -283,-590zm-129 -400c-1405,394 -815,2398 510,2078 501,-121 959,-662 788,-1317 -126,-481 -652,-942 -1298,-761z"/>
   <path class="fil1" d="M33958 8096c139,-54 145,-53 337,-49l183 236 200 -234 338 30c39,156 58,432 -4,560 -211,71 -573,23 -825,26 -214,3 -244,40 -267,-145 -15,-121 11,-331 38,-424zm403 -720c430,-196 624,427 267,584 -265,117 -546,-116 -451,-415 51,-159 86,-124 184,-169zm-70 -429c-538,107 -981,602 -860,1257 252,1362 2386,1005 2109,-413 -101,-517 -626,-969 -1249,-844z"/>
   <path class="fil1" d="M23396 11599c-63,-184 -94,-532 117,-592 295,-84 279,133 428,230l184 -238c149,-4 229,6 337,48 42,144 61,411 2,543 -163,73 -854,64 -1068,9zm416 -1294c451,-165 612,479 239,614 -429,156 -635,-469 -239,-614zm-72 -407c-1428,277 -975,2376 401,2107 1375,-269 978,-2375 -401,-2107z"/>
   <path class="fil1" d="M1986 11023c0,-215 48,-248 258,-248 186,0 188,90 295,240 198,-147 36,-240 369,-240 293,0 208,499 169,605l-132 12c-1133,51 -959,14 -959,-369zm416 -923c448,-214 654,431 277,586 -252,103 -531,-108 -444,-409 46,-157 69,-130 167,-177zm-110 -412c-524,146 -952,622 -784,1297 336,1348 2427,874 2079,-532 -116,-472 -662,-942 -1295,-765z"/>
   <path class="fil1" d="M843 9525c208,178 436,390 651,563 208,-267 188,-268 492,-466 -5,-196 -682,-2602 -790,-2936l-353 -13 0 2852z"/>
   <path class="fil1" d="M17848 17565l-9 325 1774 779c281,-249 325,-296 749,-182l324 -897c-63,-93 -105,-138 -182,-272l-2656 247z"/>
   <path class="fil1" d="M10090 8790l-55 355 1429 783c111,-86 883,-1036 923,-1155 -466,-419 -293,-395 -478,-630l-1819 647z"/>
   <path class="fil1" d="M31445 9028l-15 336 1420 797c170,-171 307,-369 469,-562 71,-84 156,-191 233,-284 90,-109 149,-200 225,-284 -145,-205 -310,-213 -458,-661l-1874 658z"/>
   <path class="fil1" d="M40682 9364l0 -1112 -886 -872c-239,223 -251,267 -687,366l444 1493c70,198 10,81 157,174 152,96 52,58 161,164l811 -213z"/>
   <path class="fil1" d="M40682 17587l0 -1930 -1437 1750c-125,146 -161,155 -46,307l1483 -127z"/>
   <path class="fil1" d="M36413 24525l13 -272 206 -27 164 242c81,-346 339,-347 326,20l-11 147 -523 9c-151,0 -175,36 -175,-119zm77 -382c3,-158 49,-297 159,-442l288 37 110 398c-128,65 -394,65 -557,7zm58 -703c-1013,329 -474,1796 459,1468 975,-343 471,-1769 -459,-1468z"/>
   <path class="fil1" d="M15561 24414l-511 -6c-24,-153 -102,-476 167,-400 120,34 113,125 164,262 108,-177 27,-303 320,-252 46,118 40,231 27,364 -92,40 -37,32 -167,32zm-433 -608c55,-266 5,-134 121,-317 350,-48 427,206 409,438 -161,19 -412,59 -544,-22l14 -99zm18 -589c-987,346 -460,1758 463,1465 342,-109 649,-477 518,-945 -99,-354 -516,-683 -981,-520z"/>
   <path class="fil1" d="M26443 7416c49,-81 62,-158 135,-265 286,-10 238,136 218,388 -193,55 -482,34 -686,16 -82,-524 206,-571 333,-139zm-220 -628c50,-174 384,-349 482,135 33,157 28,-14 23,143 -198,61 -361,40 -557,-9l52 -269zm-4 -427c-1000,341 -466,1764 458,1466 347,-112 646,-490 516,-946 -100,-350 -508,-679 -974,-520z"/>
   <path class="fil1" d="M4950 6927c82,97 55,150 131,265l93 -268c296,-25 298,123 229,396l-671 12c-53,-298 -71,-433 218,-405zm-67 -493c114,-61 251,-35 367,-2 194,508 64,435 -91,435 -368,0 -400,27 -355,-138 30,-109 52,-217 79,-295zm37 -322c-1059,259 -642,1720 331,1499 344,-78 680,-478 565,-932 -87,-343 -429,-681 -896,-567z"/>
   <path class="fil1" d="M11107 14970c0,-325 223,-272 396,-67 190,-163 56,-174 390,-133 24,293 63,422 -94,422 -754,0 -692,58 -692,-222zm309 -693c289,-173 457,292 205,407 -143,65 -279,-6 -322,-103 -111,-248 117,-304 117,-304zm-141 -245c-987,338 -473,1767 461,1465 993,-321 481,-1788 -461,-1465z"/>
   <path class="fil1" d="M33120 15422l-616 -15c-25,-186 -44,-226 13,-408l240 -23c68,72 52,90 136,166 115,-134 139,-217 370,-130 48,130 32,113 32,290 0,148 -32,120 -175,120zm-5 -829c45,467 -395,402 -451,172 -34,-139 45,-252 150,-287 146,-48 220,48 301,115zm-455 -324c-1050,385 -398,1797 499,1441 958,-381 401,-1771 -499,-1441z"/>
   <path class="fil1" d="M3527 19910c86,-223 68,-345 349,-268 11,60 30,198 24,274 -10,132 -7,132 -139,148 -83,9 -526,9 -574,-23 -72,-48 -99,-383 60,-418 210,-46 208,166 280,287zm-244 -687c70,-219 407,-247 482,29l49 291c-296,34 -304,45 -588,-18l57 -302zm-9 -357c-994,365 -432,1775 487,1458 336,-116 639,-497 488,-978 -104,-328 -520,-647 -975,-480z"/>
   <path class="fil1" d="M24537 19865l264 -6 97 279c80,-130 58,-316 250,-293 185,21 143,269 116,435 -201,21 -533,39 -722,-14l-5 -401zm64 -104c10,-115 7,-34 18,-86 7,-32 12,-50 20,-94 94,-501 537,-356 567,160l-131 53c-42,6 -135,3 -181,3 -138,-1 -168,5 -293,-36zm89 -682c-968,283 -567,1751 412,1486 347,-93 652,-473 548,-929 -82,-359 -504,-691 -960,-557z"/>
   <path class="fil1" d="M25254 25030c188,-118 294,48 378,124 228,-249 396,-195 396,71 0,179 -1,212 -175,212 -678,0 -650,91 -599,-407zm596 -410c37,485 -383,379 -437,191 -79,-278 190,-406 437,-191zm499 569c310,-899 -1105,-1410 -1433,-458 -315,912 1092,1449 1433,458z"/>
   <path class="fil1" d="M17286 6892c0,-153 64,-275 235,-192 121,59 95,163 167,294l111 -290c376,-79 296,212 238,430l-713 -3c-48,-97 -38,-120 -38,-239zm91 -356c55,-215 29,-450 324,-437 160,7 203,78 229,189l68 312c-280,39 -358,45 -636,-1l15 -63zm122 -664c-983,252 -634,1746 379,1495 973,-241 591,-1742 -379,-1495z"/>
   <path class="fil1" d="M4052 24774c170,37 86,9 170,161 103,-68 450,-483 415,253l-778 19c-21,-279 -77,-415 193,-433zm401 -137c-263,207 -528,16 -416,-236 82,-183 508,-237 416,236zm-441 -606c-968,355 -433,1737 485,1417 944,-329 417,-1749 -485,-1417z"/>
   <path class="fil1" d="M39281 7371l-590 -4c-28,-185 -84,-557 208,-438 112,45 131,211 169,287l116 -293c294,-23 271,8 271,338 0,139 -42,110 -174,110zm-517 -549c-51,-139 93,-377 173,-488 353,10 334,-1 414,384l3 110c-124,59 -467,59 -590,-6zm121 -712c-1034,293 -580,1720 366,1488 356,-87 678,-479 559,-940 -90,-350 -476,-675 -925,-548z"/>
   <path class="fil1" d="M843 12237l743 -729c-398,-890 -300,-520 -141,-1384 -301,-184 -411,-394 -602,-499l0 2612z"/>
   <path class="fil1" d="M843 22879c204,138 309,345 485,489l219 -98c-102,-492 -578,-3060 -704,-3293l0 2902z"/>
   <path class="fil0" d="M13571 19328c-241,-11 -448,-34 -499,195 -9,42 -66,537 67,597 144,65 1247,38 1349,-21 56,-47 57,-144 58,-147 92,-621 -150,-634 -508,-626 -66,112 -149,247 -251,328 -62,-112 -161,-214 -216,-326z"/>
   <path class="fil0" d="M35186 19869c-192,-152 -116,-368 -508,-313 -273,38 -254,317 -233,619 14,191 69,191 258,193 270,4 1082,45 1176,-56 84,-89 46,-544 27,-604 -54,-168 -274,-184 -465,-140 -61,30 -153,199 -255,301z"/>
   <path class="fil1" d="M40682 18752l0 -1098 -1453 141 -7 305c455,211 982,458 1460,652z"/>
   <path class="fil1" d="M40682 8114l0 -1850c-257,92 -529,232 -766,339 68,335 6,422 -76,695l842 816z"/>
   <path class="fil0" d="M7040 15334c-121,-174 -69,-448 -320,-524 -331,-100 -353,167 -355,419 -4,463 63,350 527,349l629 0c175,-31 67,11 141,-68 92,-143 32,-527 -19,-663 -547,-191 -486,286 -603,487z"/>
   <path class="fil0" d="M27754 15339c0,371 -46,470 165,470 379,0 759,20 1136,-25 47,-280 82,-989 -404,-713 -149,85 -135,323 -237,514 -68,-187 -96,-424 -235,-509 -233,-142 -425,-18 -425,263z"/>
   <path class="fil1" d="M40682 6187l0 -951c-153,97 -226,116 -464,85 -116,150 -187,239 -307,394 -96,125 -246,291 -318,415l315 390 774 -333z"/>
   <path class="fil0" d="M23396 11599c214,55 905,64 1068,-9 59,-132 40,-399 -2,-543 -108,-42 -188,-52 -337,-48l-184 238c-149,-97 -133,-314 -428,-230 -211,60 -180,408 -117,592z"/>
   <path class="fil0" d="M1986 11023c0,383 -174,420 959,369l132 -12c39,-106 124,-605 -169,-605 -333,0 -171,93 -369,240 -107,-150 -109,-240 -295,-240 -210,0 -258,33 -258,248z"/>
   <path class="fil0" d="M33958 8096c-27,93 -53,303 -38,424 23,185 53,148 267,145 252,-3 614,45 825,-26 62,-128 43,-404 4,-560l-338 -30 -200 234 -183 -236c-192,-4 -198,-5 -337,49z"/>
   <path class="fil0" d="M28162 21777c-38,145 -57,421 5,547 152,52 913,60 1044,-9 89,-81 41,-424 10,-533 -141,-55 -147,-51 -339,-51l-198 239 -182 -249 -340 56z"/>
   <path class="fil0" d="M6748 21687c-23,146 -31,381 83,422 114,41 882,20 985,-8l59 -232c2,-71 0,-187 -25,-251 -55,-143 -199,-121 -367,-113 -47,79 -101,160 -161,240 -95,-84 -112,-184 -245,-245 -212,2 -298,-7 -329,187z"/>
   <path class="fil0" d="M13659 8420c12,-214 37,-383 -48,-574 -391,-47 -262,-66 -515,218 -141,-194 -176,-350 -528,-187 -40,298 -106,554 153,554l938 -11z"/>
   <path class="fil1" d="M19050 11867c143,-1 146,-4 237,77 105,-91 88,-76 145,-75 155,3 38,4 89,29l24 229 -504 7 9 -267zm120 -60c-55,-221 17,-289 245,-240l17 205 -245 -116c27,209 134,100 181,182l-198 -31zm5 -429c-630,179 -367,1089 245,925 605,-162 353,-1095 -245,-925z"/>
   <path class="fil1" d="M11999 24687c66,-131 21,-112 217,-91l13 251c-161,49 -348,28 -524,25l18 -273c139,-21 51,-33 167,13l109 75zm-129 -388c153,-148 338,74 211,212 -145,157 -363,-65 -211,-212zm-68 -190c-627,249 -254,1132 347,914 558,-202 278,-1162 -347,-914z"/>
   <path class="fil1" d="M33592 24833c14,144 32,168 -6,267 -544,21 -493,29 -493,-170 0,-86 13,-107 102,-115 118,-11 88,9 147,85l93 -63c108,-41 80,-21 157,-4zm-321 -312c194,-136 316,150 160,245 -164,100 -341,-118 -160,-245zm-402 373c102,593 1106,469 957,-217 -120,-555 -1072,-452 -957,217z"/>
   <path class="fil2" d="M6711 14257c281,-139 347,-175 632,13 -32,423 -558,409 -632,-13zm-226 345c205,191 932,125 1106,4 -64,-163 -74,7 -111,-227 -9,-61 32,-567 -439,-568 -478,-1 -444,454 -458,565 -28,218 -48,71 -98,226z"/>
   <path class="fil2" d="M28096 14476c368,-133 275,-139 642,2 -33,190 -92,312 -303,322 -234,11 -321,-115 -339,-324zm-241 344c186,177 847,147 1101,42 -3,-140 -56,-75 -88,-238 -22,-117 10,-162 -38,-302 -125,-365 -686,-372 -820,-33 -56,143 -25,166 -41,302 -26,214 -44,89 -114,229z"/>
   <path class="fil1" d="M23097 24124c83,-25 52,-11 141,-1l9 263 -512 0 18 -267c189,-13 146,-36 206,86 10,-6 21,-15 28,-20l110 -61zm-260 -190c42,-147 7,-75 106,-160l189 52 -16 214c-163,78 -219,65 -279,-106zm29 -307c-656,212 -317,1095 274,916 579,-175 324,-1108 -274,-916z"/>
   <path class="fil1" d="M22054 18133l-392 -3c-50,-200 -13,-349 172,-248 8,5 18,13 25,17l47 38c272,-277 355,196 148,196zm-293 -548c182,-108 370,-24 243,213 -198,52 -268,-13 -243,-213zm-12 -196c-613,234 -268,1094 308,906 218,-71 394,-317 305,-608 -65,-213 -336,-405 -613,-298z"/>
   <path class="fil1" d="M20432 9029l191 33 -18 254 -464 1c-17,-69 -29,-54 -22,-139 20,-248 160,-133 269,-41l44 -108zm0 0c-21,-3 -77,-11 -95,-18 -117,-48 -7,18 -54,-53 -3,-2 -145,58 -12,-224 186,-21 302,24 231,214 -4,11 -28,40 -32,47l-38 34zm-217 -448c-629,257 -226,1114 355,885 563,-222 228,-1122 -355,-885z"/>
   <path class="fil1" d="M18955 23607l118 -74c96,-24 41,-11 136,9l13 261 -520 -12c-10,-229 23,-406 253,-184zm142 -337c35,266 -218,297 -277,132 -62,-172 99,-288 277,-132zm-249 -233c-646,190 -356,1075 242,925 611,-155 351,-1099 -242,-925z"/>
   <path class="fil1" d="M36358 5416c83,-1 79,-36 182,53l45 51c7,7 15,19 24,28 38,-149 4,-131 163,-129 71,112 48,121 37,257l-458 7 7 -267zm53 -37c-38,-461 388,-391 341,-20 -97,36 -207,29 -341,20zm79 -450c-671,171 -392,1109 234,924 585,-172 341,-1070 -234,-924z"/>
   <path class="fil1" d="M1617 23963c112,-113 61,-82 241,-77l1 271 -508 -2 16 -252c127,-30 108,-52 250,60zm59 -115c-614,26 162,-655 71,-76 -18,19 -55,57 -71,76zm-214 -446c-625,226 -284,1112 308,907 568,-198 287,-1123 -308,-907z"/>
   <path class="fil1" d="M14971 5448c-15,-250 -21,-179 37,-259 172,5 131,25 193,145 65,-128 19,-89 112,-177 -237,-17 -333,66 -281,-150 45,-189 113,-182 284,-150 55,148 118,443 109,597l-454 -6zm114 -745c-647,188 -360,1078 242,925 609,-155 349,-1096 -242,-925z"/>
   <path class="fil1" d="M19832 19028c93,-12 79,-33 201,30l82 58c61,-130 22,-111 209,-89l25 247c-165,54 -356,31 -526,28l9 -274zm345 -329c238,381 -417,396 -191,-5l191 5zm-259 -160c-630,245 -224,1129 355,886 557,-234 229,-1113 -355,-886z"/>
   <path class="fil1" d="M17090 17754c173,-30 119,3 205,131 62,-91 54,-138 184,-139 85,106 64,142 34,277l-442 0c-23,-141 -32,-138 19,-269zm97 -309c3,-33 243,-215 300,259l-389 -1c6,-35 20,-129 30,-158 42,-130 26,-63 59,-100zm10 -195c-642,156 -407,1105 234,924 544,-153 393,-1076 -234,-924z"/>
   <path class="fil0" d="M37051 12926c-96,-103 -85,-167 -124,-251 -73,-158 -430,-332 -418,233 6,299 104,221 410,218 190,-2 390,19 574,-16 64,-170 44,-403 -11,-544 -349,-90 -373,57 -431,360z"/>
   <path class="fil1" d="M9295 8965c172,-9 140,21 217,135 67,-97 53,-145 231,-135l-20 277 -442 -4 14 -273zm30 -45c6,-251 34,-359 313,-301l58 303 -185 2 -186 -4zm57 -465c-594,159 -364,1095 257,927 558,-150 384,-1099 -257,-927z"/>
   <path class="fil1" d="M22206 6420c152,-15 151,16 217,117l33 -48c5,-6 12,-17 18,-23 95,-90 103,-54 171,-53 36,127 83,256 -76,278 -110,15 -272,8 -383,-21l20 -250zm42 -48c-4,-269 34,-353 308,-305l48 312 -182 0 -174 -7zm33 -449c-630,226 -283,1098 300,906 588,-193 299,-1121 -300,-906z"/>
   <path class="fil0" d="M15174 12886c188,21 382,8 572,9 243,3 396,70 396,-175 0,-172 22,-533 -302,-391 -146,64 -114,231 -199,385 -59,-133 -75,-312 -184,-373 -360,-203 -370,344 -283,545z"/>
   <path class="fil1" d="M30689 9189c192,-16 145,26 205,164 121,-307 218,-130 219,-122 6,65 52,19 3,231l-448 -1c-33,-151 -32,-168 21,-272zm9 -59c43,-154 10,-316 203,-303 177,12 159,180 188,314l-182 13 -38 6 -171 -30zm72 -438c-664,196 -307,1139 296,905 514,-201 318,-1087 -296,-905z"/>
   <path class="fil1" d="M17960 25971c111,-162 -2,-171 220,-159 58,109 37,135 37,276l-499 1 16 -282c190,-7 173,3 226,164zm-200 -219c47,-147 41,-334 228,-325 170,8 141,139 188,328l-416 -3zm-234 174c186,541 1069,342 915,-289 -151,-615 -1135,-351 -915,289z"/>
   <path class="fil1" d="M10870 21632c126,-29 146,41 197,161 85,-145 5,-185 203,-168 73,108 50,116 46,280l-492 10c-5,-260 -13,-148 30,-255 3,-8 10,-19 16,-28zm-3 -56c29,-146 36,-340 226,-325 169,13 134,152 178,317l-173 18 -74 2 -157 -12zm57 -413c-630,236 -262,1105 325,894 562,-202 289,-1125 -325,-894z"/>
   <path class="fil1" d="M32235 21870c227,-27 118,-7 221,136 92,-164 -6,-155 233,-146l17 255c-155,50 -346,40 -503,11 -6,-128 -25,-145 32,-256zm7 -83c59,-138 24,-311 214,-306 168,5 156,188 207,299 -136,54 -280,48 -421,7zm82 -403c-643,241 -293,1093 296,907 588,-186 281,-1124 -296,-907z"/>
   <path class="fil1" d="M21696 13162c78,47 54,59 51,262l-461 -10c-3,-47 -12,-93 -5,-140 28,-177 -8,-39 51,-92l-41 -159c138,-109 21,-254 307,-229 93,41 126,199 122,295 -1,10 -19,61 -24,73zm-324 -479c-145,58 -203,73 -269,193 -70,128 -87,271 -38,423 76,233 362,374 627,278 578,-208 253,-1125 -320,-894z"/>
   <path class="fil1" d="M38483 17974c42,-127 -23,-151 92,-345 376,-39 226,143 294,340 21,58 79,-53 45,285l-477 -8 -8 -140c-11,-154 32,-64 54,-132zm15 -473c-594,241 -227,1126 360,885 571,-234 235,-1126 -360,-885z"/>
   <path class="fil1" d="M39588 26033c37,288 24,289 -160,289 -337,0 -322,40 -324,-175l16 -116c226,0 130,-6 234,148 85,-134 23,-155 234,-146zm-418 -61c-113,-406 471,-410 369,-2 -90,47 -275,48 -369,2zm-283 102c30,226 267,427 533,398 242,-28 452,-256 418,-543 -70,-586 -1039,-519 -951,145z"/>
   <path class="fil1" d="M40350 23837c171,-181 307,-107 240,196l-491 1c-27,-241 -30,-172 19,-260 73,-25 47,-54 187,25l45 38zm76 -159c-17,12 3,31 -78,38 -115,9 -167,-83 -149,-185 26,-143 151,-115 266,-80 88,290 -26,222 -39,227zm256 409l0 -720c-1020,-581 -1125,1284 0,720z"/>
   <path class="fil0" d="M13533 18659c66,-18 156,69 259,109 101,40 210,55 328,68 -99,559 -802,266 -587,-177zm102 -236c-520,208 -199,1016 343,793 468,-192 227,-1022 -343,-793z"/>
   <path class="fil0" d="M35499 19102c-129,431 -589,290 -621,-4 -34,-312 84,-219 200,-151 188,111 304,79 421,155zm-474 -438c-600,289 -112,990 350,775 474,-222 181,-1030 -350,-775z"/>
   <path class="fil1" d="M843 24516c112,-110 177,-209 288,-323 -88,-440 -149,-435 118,-775 -87,-160 -261,-303 -406,-430l0 1528z"/>
   <path class="fil1" d="M843 5699l0 365c100,-157 -5,-276 287,-231 49,28 119,180 81,319l-368 -19 0 45 120 10 64 160 75 -122c99,-88 33,-42 146,-32 58,107 38,130 35,261l-440 3 0 132c903,217 889,-1112 0,-891z"/>
   <path class="fil2" d="M36779 12130c164,-96 283,-124 467,0 -3,327 -408,316 -467,0zm642 280c9,-78 -88,-479 -163,-544 -166,-144 -457,-76 -540,100 -69,146 5,116 -88,359 -1,2 -96,80 73,128 169,48 580,31 718,-43z"/>
   <path class="fil0" d="M11107 14970c0,280 -62,222 692,222 157,0 118,-129 94,-422 -334,-41 -200,-30 -390,133 -173,-205 -396,-258 -396,67z"/>
   <path class="fil0" d="M33120 15422c143,0 175,28 175,-120 0,-177 16,-160 -32,-290 -231,-87 -255,-4 -370,130 -84,-76 -68,-94 -136,-166l-240 23c-57,182 -38,222 -13,408l616 15z"/>
   <path class="fil2" d="M15406 11909c188,-156 316,-111 475,2 -24,99 -71,143 -132,209 -233,32 -314,-2 -343,-211zm-157 275c153,84 621,102 795,-17l-55 -161c-17,-84 10,-453 -354,-450 -321,3 -323,296 -382,561l-4 67z"/>
   <path class="fil0" d="M25254 25030c-51,498 -79,407 599,407 174,0 175,-33 175,-212 0,-266 -168,-320 -396,-71 -84,-76 -190,-242 -378,-124z"/>
   <path class="fil0" d="M39281 7371c132,0 174,29 174,-110 0,-330 23,-361 -271,-338l-116 293c-38,-76 -57,-242 -169,-287 -292,-119 -236,253 -208,438l590 4z"/>
   <path class="fil0" d="M4052 24774c-270,18 -214,154 -193,433l778 -19c35,-736 -312,-321 -415,-253 -84,-152 0,-124 -170,-161z"/>
   <path class="fil0" d="M17286 6892c0,119 -10,142 38,239l713 3c58,-218 138,-509 -238,-430l-111 290c-72,-131 -46,-235 -167,-294 -171,-83 -235,39 -235,192z"/>
   <path class="fil0" d="M3187 20041c48,32 491,32 574,23 132,-16 129,-16 139,-148 6,-76 -13,-214 -24,-274 -281,-77 -263,45 -349,268 -72,-121 -70,-333 -280,-287 -159,35 -132,370 -60,418z"/>
   <path class="fil0" d="M24542 20266c189,53 521,35 722,14 27,-166 69,-414 -116,-435 -192,-23 -170,163 -250,293l-97 -279 -264 6 5 401z"/>
   <path class="fil0" d="M26443 7416c-127,-432 -415,-385 -333,139 204,18 493,39 686,-16 20,-252 68,-398 -218,-388 -73,107 -86,184 -135,265z"/>
   <path class="fil1" d="M40682 12555l0 -186 -258 -4c0,-83 -50,-418 214,-224l44 42 0 -101c-82,-14 -102,-23 -151,-55 -40,-160 -51,-66 3,-239l148 -34 0 -169c-634,66 -687,879 0,970z"/>
   <path class="fil0" d="M36413 24525c0,155 24,119 175,119l523 -9 11 -147c13,-367 -245,-366 -326,-20l-164 -242 -206 27 -13 272z"/>
   <path class="fil0" d="M4950 6927c-289,-28 -271,107 -218,405l671 -12c69,-273 67,-421 -229,-396l-93 268c-76,-115 -49,-168 -131,-265z"/>
   <path class="fil0" d="M15561 24414c130,0 75,8 167,-32 13,-133 19,-246 -27,-364 -293,-51 -212,75 -320,252 -51,-137 -44,-228 -164,-262 -269,-76 -191,247 -167,400l511 6z"/>
   <path class="fil0" d="M13337 7482c-145,373 -575,153 -439,-146l439 146zm-364 -345c-381,168 -176,780 283,590 354,-147 135,-774 -283,-590z"/>
   <path class="fil0" d="M7143 21009c4,1 16,2 20,4l388 160 -130 175c-240,24 -425,-96 -317,-333l39 -6zm32 -191c-364,158 -175,800 288,592 343,-154 131,-773 -288,-592z"/>
   <path class="fil0" d="M24060 10839c-289,40 -423,-88 -335,-358l438 173c-37,139 -25,79 -103,185zm-248 -534c-396,145 -190,770 239,614 373,-135 212,-779 -239,-614z"/>
   <path class="fil0" d="M2664 10616c-261,23 -404,-72 -328,-350 122,1 59,31 211,85 112,39 153,13 244,87l-127 178zm-262 -516c-98,47 -121,20 -167,177 -87,301 192,512 444,409 377,-155 171,-800 -277,-586z"/>
   <path class="fil0" d="M34281 7536c3,1 422,161 434,167 -85,266 -258,223 -463,88l29 -255zm80 -160c-98,45 -133,10 -184,169 -95,299 186,532 451,415 357,-157 163,-780 -267,-584z"/>
   <path class="fil0" d="M28818 21574c-257,34 -418,-81 -330,-354l433 169c-36,139 -25,78 -103,185zm-239 -530c-414,151 -179,758 230,611 361,-130 208,-770 -230,-611z"/>
   <path class="fil1" d="M28096 14476c18,209 105,335 339,324 211,-10 270,-132 303,-322 -367,-141 -274,-135 -642,-2z"/>
   <path class="fil2" d="M38568 17942l210 -4 -98 200 -93 -167c-4,-7 -12,-20 -19,-29zm-1 -181c137,-25 120,-53 213,50 -176,190 -175,21 -213,-50zm-138 345l8 140 477 8c34,-338 -24,-227 -45,-285 -68,-197 82,-379 -294,-340 -115,194 -50,218 -92,345 -22,68 -65,-22 -54,132z"/>
   <path class="fil1" d="M6711 14257c74,422 600,436 632,13 -285,-188 -351,-152 -632,-13z"/>
   <path class="fil2" d="M17497 6385c108,-110 229,-114 360,-10 -61,256 -269,219 -360,10zm-135 214c278,46 356,40 636,1l-68 -312c-26,-111 -69,-182 -229,-189 -295,-13 -269,222 -324,437l-15 63z"/>
   <path class="fil1" d="M35499 19102c-117,-76 -233,-44 -421,-155 -116,-68 -234,-161 -200,151 32,294 492,435 621,4z"/>
   <path class="fil2" d="M39251 6582c-31,102 -50,123 -112,189 -183,3 -224,-10 -261,-182 147,-69 222,-62 373,-7zm-487 240c123,65 466,65 590,6l-3 -110c-80,-385 -61,-374 -414,-384 -80,111 -224,349 -173,488z"/>
   <path class="fil1" d="M13533 18659c-215,443 488,736 587,177 -118,-13 -227,-28 -328,-68 -103,-40 -193,-127 -259,-109z"/>
   <path class="fil0" d="M15097 5011c106,-91 114,-72 201,0 -67,137 -132,114 -201,0zm216 146c-93,88 -47,49 -112,177 -62,-120 -21,-140 -193,-145 -58,80 -52,9 -37,259l454 6c9,-154 -54,-449 -109,-597 -171,-32 -239,-39 -284,150 -52,216 44,133 281,150z"/>
   <path class="fil2" d="M24724 19582c93,-141 205,-114 354,-52 -48,253 -257,232 -354,52zm-123 179c125,41 155,35 293,36 46,0 139,3 181,-3l131 -53c-30,-516 -473,-661 -567,-160 -8,44 -13,62 -20,94 -11,52 -8,-29 -18,86z"/>
   <path class="fil2" d="M3702 19331l-93 131c-187,41 -228,25 -257,-139 103,-111 233,-85 350,8zm-476 194c284,63 292,52 588,18l-49 -291c-75,-276 -412,-248 -482,-29l-57 302z"/>
   <path class="fil3" d="M15886 9454c14,-193 -69,-118 122,-125 7,-1 18,-1 25,-1 79,4 99,-45 107,109l-254 17zm245 -386c-529,-58 -416,424 -191,478 146,36 270,-46 308,-164 52,-156 -50,-222 -117,-314z"/>
   <path class="fil3" d="M20872 17261c80,0 138,-23 123,124l-246 -3c-17,-148 52,-121 123,-121zm133 -227c-457,-74 -479,386 -224,468 162,51 276,-21 321,-131 61,-149 -35,-235 -97,-337z"/>
   <path class="fil3" d="M9032 18208l57 136c16,-57 -5,-95 73,-56 91,45 36,-17 45,130l-232 -14 57 -196zm242 283c164,-349 -93,-592 -333,-403 -216,169 -111,516 333,403z"/>
   <path class="fil3" d="M3250 15156l13 99 -259 19c10,-170 -27,-122 75,-146l171 28zm-184 -270c-362,138 -146,572 151,470 302,-103 140,-581 -151,-470z"/>
   <path class="fil3" d="M7784 11312l22 -113c37,-16 154,-32 171,-29 105,18 88,-15 71,129l-264 13zm0 0c25,68 -22,49 71,81 76,26 119,8 195,0 102,-135 246,-370 -28,-472 -266,-99 -418,198 -313,348 64,92 -39,24 75,43z"/>
   <path class="fil3" d="M17790 20703l-269 0c10,-115 -52,-168 163,-133 90,15 85,-33 106,133zm-332 43c399,130 568,-185 383,-382 -169,-179 -546,-59 -383,382z"/>
   <path class="fil2" d="M4903 6624c144,-68 183,-65 332,-5l-29 138c-243,82 -236,46 -303,-133zm-20 -190c-27,78 -49,186 -79,295 -45,165 -13,138 355,138 155,0 285,73 91,-435 -116,-33 -253,-59 -367,2z"/>
   <path class="fil2" d="M15451 23862c-148,12 -195,-22 -215,-149 146,-92 236,-73 309,37 -68,125 -28,39 -94,112zm-337 43c132,81 383,41 544,22 18,-232 -59,-486 -409,-438 -116,183 -66,51 -121,317l-14 99z"/>
   <path class="fil2" d="M26283 6842c104,-70 247,-25 332,23 -57,219 -270,211 -332,-23zm-112 215c196,49 359,70 557,9 5,-157 10,14 -23,-143 -98,-484 -432,-309 -482,-135l-52 269z"/>
   <path class="fil3" d="M19875 14565c11,-97 -50,-141 171,-110 57,8 -54,-58 49,6 64,40 29,-32 43,104 -98,50 -166,50 -263,0zm14 -333c-60,40 -80,3 -120,123 -75,226 174,410 370,290 244,-150 43,-607 -250,-413z"/>
   <path class="fil2" d="M36935 23924c-125,501 -646,-185 0,0zm-445 219c163,58 429,58 557,-7l-110 -398 -288 -37c-110,145 -156,284 -159,442z"/>
   <path class="fil4" d="M7224 6457c4,-138 -4,-91 56,-178l167 24c88,84 44,9 56,157l-279 -3zm-54 -358c-32,103 -99,244 7,359 84,91 259,121 366,14 219,-217 -55,-546 -373,-373z"/>
   <path class="fil5" d="M21332 13182c95,6 37,-23 102,36l33 43c10,9 17,17 27,26l79 60c13,-168 -26,-125 123,-185 5,-12 23,-63 24,-73 4,-96 -29,-254 -122,-295 -286,-25 -169,120 -307,229l41 159z"/>
   <path class="fil4" d="M10093 11413l132 -23c31,96 54,202 61,316 -219,5 -164,4 -242,-56 47,-102 -69,33 37,-54 91,-74 53,67 80,-21 2,-6 10,3 15,2 57,-140 -45,-102 -54,-134 -3,-12 -17,-9 -29,-30zm304 -1c-91,-60 -161,-150 -306,-107 -129,38 -214,166 -160,329 76,228 540,253 466,-222z"/>
   <path class="fil4" d="M28730 6491c184,36 145,57 162,205l-286 0c13,-139 -33,-126 124,-205zm203 -168c-407,-145 -555,207 -354,388 203,183 516,16 354,-388z"/>
   <path class="fil0" d="M33093 24930c0,199 -51,191 493,170 38,-99 20,-123 6,-267 -77,-17 -49,-37 -157,4l-93 63c-59,-76 -29,-96 -147,-85 -89,8 -102,29 -102,115z"/>
   <path class="fil0" d="M20324 19027c-187,-22 -148,-41 -209,89l-82 -58c-122,-63 -108,-42 -201,-30l-9 274c170,3 361,26 526,-28l-25 -247z"/>
   <path class="fil0" d="M11705 24872c176,3 363,24 524,-25l-13 -251c-196,-21 -151,-40 -217,91l-109 -75c-116,-46 -28,-34 -167,-13l-18 273z"/>
   <path class="fil0" d="M40118 23774c-49,88 -46,19 -19,260l491 -1c67,-303 -69,-377 -240,-196l-45 -38c-140,-79 -114,-50 -187,-25z"/>
   <path class="fil1" d="M29347 11221l109 282c-33,18 47,68 -277,31 7,-196 68,-116 70,-190 2,-78 -126,-97 98,-123zm-126 -53c-8,4 -244,45 -136,311 42,105 181,190 334,128 275,-110 116,-574 -198,-439z"/>
   <path class="fil1" d="M35223 25958c4,7 12,15 16,23l34 141 -287 2c7,-140 -8,-44 33,-143l35 -60c39,-113 -74,-17 58,-131 140,56 59,40 90,129 1,4 6,13 8,18 3,6 10,14 13,21zm-334 -109c4,94 -29,410 285,359 392,-63 154,-783 -285,-359z"/>
   <path class="fil0" d="M18702 23791l520 12 -13 -261c-95,-20 -40,-33 -136,-9l-118 74c-230,-222 -263,-45 -253,184z"/>
   <path class="fil0" d="M22054 18133c207,0 124,-473 -148,-196l-47 -38c-7,-4 -17,-12 -25,-17 -185,-101 -222,48 -172,248l392 3z"/>
   <path class="fil0" d="M39104 26147c2,215 -13,175 324,175 184,0 197,-1 160,-289 -211,-9 -149,12 -234,146 -104,-154 -8,-148 -234,-148l-16 116z"/>
   <path class="fil0" d="M1351 24155l508 2 -1 -271c-180,-5 -129,-36 -241,77 -142,-112 -123,-90 -250,-60l-16 252z"/>
   <path class="fil0" d="M32689 21860c-239,-9 -141,-18 -233,146 -103,-143 6,-163 -221,-136 -57,111 -38,128 -32,256 157,29 348,39 503,-11l-17 -255z"/>
   <path class="fil1" d="M33651 4959c118,11 176,-79 204,315l-259 -1 55 -314zm-156 48l-7 230c95,85 128,153 284,129 390,-61 159,-787 -277,-359z"/>
   <path class="fil0" d="M22735 24386l512 0 -9 -263c-89,-10 -58,-24 -141,1l-110 61c-7,5 -18,14 -28,20 -60,-122 -17,-99 -206,-86l-18 267z"/>
   <path class="fil1" d="M30351 18662c4,-146 22,-256 113,-327 125,59 128,156 135,331l-248 -4zm-106 -275l-7 243c485,400 645,-306 287,-363 -139,-22 -195,59 -280,120z"/>
   <path class="fil1" d="M37276 9566c98,-263 -20,-175 160,-195l100 331 -284 -7c0,-125 -13,-28 24,-129zm-2 201c514,56 413,-415 187,-468 -163,-38 -271,43 -302,157 -44,157 44,221 115,311z"/>
   <path class="fil0" d="M20432 9029l-44 108c-109,-92 -249,-207 -269,41 -7,85 5,70 22,139l464 -1 18 -254 -191 -33z"/>
   <path class="fil1" d="M21435 22564c12,-378 92,-292 139,-313 104,94 110,196 113,330l-252 -17zm356 -265c-84,-74 -153,-162 -309,-118 -114,32 -195,137 -156,302 53,228 524,325 465,-184z"/>
   <path class="fil1" d="M22877 5158c20,-111 43,-88 63,-133 2,-4 7,-13 9,-17 0,0 -2,-82 27,-137 156,21 90,-21 125,110 34,129 58,33 62,217 -234,6 -169,23 -286,-40zm259 107c74,-81 169,-156 118,-309 -38,-114 -157,-195 -303,-159 -226,57 -316,518 185,468z"/>
   <path class="fil1" d="M20785 11018c38,91 69,217 54,334 -42,0 -110,4 -149,-2 -67,-11 -53,-17 -83,-35 -24,-86 -18,-263 178,-297zm-180 -64c-71,88 -159,152 -117,307 32,120 155,212 327,150 218,-79 264,-518 -210,-457z"/>
   <path class="fil1" d="M7608 24363c-23,-232 30,-288 133,-322 76,65 115,135 96,322l-229 0zm350 -254l-136 -131c-320,-27 -453,228 -276,409 176,182 440,52 412,-278z"/>
   <path class="fil0" d="M17718 26089l499 -1c0,-141 21,-167 -37,-276 -222,-12 -109,-3 -220,159 -53,-161 -36,-171 -226,-164l-16 282z"/>
   <path class="fil0" d="M11316 21905c4,-164 27,-172 -46,-280 -198,-17 -118,23 -203,168 -51,-120 -71,-190 -197,-161 -6,9 -13,20 -16,28 -43,107 -35,-5 -30,255l492 -10z"/>
   <path class="fil1" d="M31432 11937c-11,-91 -1,-132 14,-187 41,-153 -6,-70 88,-141 104,41 151,110 133,325l-235 3zm355 -102c25,-420 -444,-379 -478,-107 -34,268 312,441 478,107z"/>
   <path class="fil1" d="M18884 4911c12,-147 -13,17 10,-72l48 -132c65,-148 -65,-80 149,-114l79 343 -286 -25zm24 96c510,52 403,-415 183,-470 -146,-36 -265,47 -302,162 -50,153 50,222 119,308z"/>
   <path class="fil0" d="M32750 14610l227 95c94,42 42,20 76,44 -145,215 -395,109 -303,-139zm365 -17c-81,-67 -155,-163 -301,-115 -105,35 -184,148 -150,287 56,230 496,295 451,-172z"/>
   <path class="fil0" d="M11356 14380c84,32 252,85 319,144 -96,121 -134,136 -307,91l-12 -235zm60 -103c0,0 -228,56 -117,304 43,97 179,168 322,103 252,-115 84,-580 -205,-407z"/>
   <path class="fil1" d="M26526 4891c-3,-104 -12,-33 16,-120 83,-253 37,-181 168,-203l54 169c35,110 32,-1 37,176l-275 -22zm23 76c484,55 419,-414 180,-469 -149,-34 -266,44 -304,164 -46,150 52,227 124,305z"/>
   <path class="fil1" d="M29099 24273c135,48 47,-49 99,113 28,87 30,127 31,218l-248 -2c-7,-337 85,-312 118,-329zm-221 303l101 90c354,61 475,-229 305,-400 -181,-182 -457,-51 -406,310z"/>
   <path class="fil1" d="M12221 5031c20,-360 72,-272 131,-304 74,58 95,5 116,334 -153,2 -162,19 -247,-30zm348 -13c81,-446 -359,-449 -449,-238 -105,245 151,504 449,238z"/>
   <path class="fil1" d="M40306 5010l24 -193c198,6 157,13 175,193l22 138 -243 0c-8,-52 -25,-60 22,-138zm-134 -116c-57,486 519,489 467,0 -206,-191 -260,-191 -467,0z"/>
   <path class="fil0" d="M19432 11869c-57,-1 -40,-16 -145,75 -91,-81 -94,-78 -237,-77l-9 267 504 -7 -24 -229c-51,-25 66,-26 -89,-29z"/>
   <path class="fil1" d="M24583 15181l79 332 -290 -4c9,-101 -8,-33 21,-117l41 -90c49,-159 -50,-89 149,-121zm-195 -27c-308,207 18,543 248,409 260,-151 61,-615 -248,-409z"/>
   <path class="fil1" d="M13862 25768l19 121 -270 -2c-7,-238 2,-92 45,-132 -4,-179 -21,-183 175,-219l31 232zm-362 11c38,291 565,249 482,-106 -65,-276 -528,-240 -482,106z"/>
   <path class="fil0" d="M22186 6670c111,29 273,36 383,21 159,-22 112,-151 76,-278 -68,-1 -76,-37 -171,53 -6,6 -13,17 -18,23l-33 48c-66,-101 -65,-132 -217,-117l-20 250z"/>
   <path class="fil1" d="M39136 20801l22 133 -248 3 1 -122c40,-110 16,-111 38,-225 249,33 145,-6 187,211zm-4 208c288,-247 96,-533 -176,-467 -231,55 -281,513 176,467z"/>
   <path class="fil0" d="M25486 24639c44,22 91,49 144,69l159 75c-100,215 -353,143 -303,-144zm364 -19c-247,-215 -516,-87 -437,191 54,188 474,294 437,-191z"/>
   <path class="fil0" d="M31116 9462c49,-212 3,-166 -3,-231 -1,-8 -98,-185 -219,122 -60,-138 -13,-180 -205,-164 -53,104 -54,121 -21,272l448 1z"/>
   <path class="fil1" d="M1516 4852c114,-266 -139,-198 208,-231 14,118 -3,124 34,231l6 112 -248 0 0 -112zm-114 56l139 130 195 7c492,-429 -392,-772 -334,-137z"/>
   <path class="fil0" d="M4098 24418c94,32 246,73 312,144 -133,165 -179,135 -320,33l8 -177zm355 219c92,-473 -334,-419 -416,-236 -112,252 153,443 416,236z"/>
   <path class="fil0" d="M17479 17746c-130,1 -122,48 -184,139 -86,-128 -32,-161 -205,-131 -51,131 -42,128 -19,269l442 0c30,-135 51,-171 -34,-277z"/>
   <path class="fil1" d="M15406 11909c29,209 110,243 343,211 61,-66 108,-110 132,-209 -159,-113 -287,-158 -475,-2z"/>
   <path class="fil1" d="M36779 12130c59,316 464,327 467,0 -184,-124 -303,-96 -467,0z"/>
   <path class="fil1" d="M24060 10839c78,-106 66,-46 103,-185l-438 -173c-88,270 46,398 335,358z"/>
   <path class="fil0" d="M9281 9238l442 4 20 -277c-178,-10 -164,38 -231,135 -77,-114 -45,-144 -217,-135l-14 273z"/>
   <path class="fil0" d="M36609 5548c-9,-9 -17,-21 -24,-28l-45 -51c-103,-89 -99,-54 -182,-53l-7 267 458 -7c11,-136 34,-145 -37,-257 -159,-2 -125,-20 -163,129z"/>
   <path class="fil1" d="M2664 10616l127 -178c-91,-74 -132,-48 -244,-87 -152,-54 -89,-84 -211,-85 -76,278 67,373 328,350z"/>
   <path class="fil1" d="M28818 21574c78,-107 67,-46 103,-185l-433 -169c-88,273 73,388 330,354z"/>
   <path class="fil1" d="M34252 7791c205,135 378,178 463,-88 -12,-6 -431,-166 -434,-167l-29 255z"/>
   <path class="fil1" d="M7104 21015c-108,237 77,357 317,333l130 -175 -388 -160c-4,-2 -16,-3 -20,-4l-39 6z"/>
   <path class="fil0" d="M843 6458l440 -3c3,-131 23,-154 -35,-261 -113,-10 -47,-56 -146,32l-75 122 -64 -160 -120 -10 0 280z"/>
   <path class="fil1" d="M12898 7336c-136,299 294,519 439,146l-439 -146z"/>
   <path class="fil0" d="M21696 13162c-149,60 -110,17 -123,185l-79 -60c-10,-9 -17,-17 -27,-26l-33 -43c-65,-59 -7,-30 -102,-36 -59,53 -23,-85 -51,92 -7,47 2,93 5,140l461 10c3,-203 27,-215 -51,-262z"/>
   <path class="fil2" d="M39458 25890c-127,73 -137,73 -214,-37 2,-45 73,-79 138,-63 105,25 55,23 76,100zm-288 82c94,46 279,45 369,-2 102,-408 -482,-404 -369,2z"/>
   <path class="fil2" d="M18077 25631c-100,129 -147,101 -219,-32 59,-68 165,-41 219,32zm-317 121l416 3c-47,-189 -18,-320 -188,-328 -187,-9 -181,178 -228,325z"/>
   <path class="fil2" d="M32338 21637l226 -8c-25,79 -20,126 -110,129 -117,4 -73,-49 -116,-121zm-96 150c141,41 285,47 421,-7 -51,-111 -39,-294 -207,-299 -190,-5 -155,168 -214,306z"/>
   <path class="fil2" d="M11059 21532c-107,0 -82,-30 -102,-112 61,-49 136,-37 214,6 -19,55 -9,105 -112,106zm-192 44l157 12 74 -2 173 -18c-44,-165 -9,-304 -178,-317 -190,-15 -197,179 -226,325z"/>
   <path class="fil2" d="M30798 8995c130,-66 110,-53 202,9 -26,68 0,86 -95,92 -105,6 -90,-48 -107,-101zm-100 135l171 30 38 -6 182 -13c-29,-134 -11,-302 -188,-314 -193,-13 -160,149 -203,303z"/>
   <path class="fil2" d="M17295 17656c-122,-66 -93,-35 -81,-133l198 34 -117 99zm-108 -211c-33,37 -17,-30 -59,100 -10,29 -24,123 -30,158l389 1c-57,-474 -297,-292 -300,-259z"/>
   <path class="fil6" d="M1130 6043c-127,81 -110,65 -191,-36 5,-49 64,-64 120,-56 168,24 60,46 71,92zm-287 21l0 69 368 19c38,-139 -32,-291 -81,-319 -292,-45 -187,74 -287,231z"/>
   <path class="fil1" d="M843 17955c218,-203 220,-479 0,-684l0 684z"/>
   <path class="fil2" d="M22324 6228c105,-80 108,-71 202,0 -26,64 32,95 -101,91 -140,-4 -78,-35 -101,-91zm-76 144l174 7 182 0 -48 -312c-274,-48 -312,36 -308,305z"/>
   <path class="fil2" d="M9413 8773c98,-69 98,-70 197,0 -18,59 38,96 -99,97 -137,1 -80,-36 -98,-97zm-88 147l186 4 185 -2 -58 -303c-279,-58 -307,50 -313,301z"/>
   <path class="fil2" d="M36484 5232c108,-69 67,-58 187,-10 -5,67 1,91 -86,99 -137,13 -81,-34 -101,-89zm-73 147c134,9 244,16 341,-20 47,-371 -379,-441 -341,20z"/>
   <path class="fil1" d="M5387 4532l29 145 -259 -9 -4 -126c50,-117 17,-87 43,-220 244,36 135,-7 191,210zm29 145l0 0z"/>
   <path class="fil7" d="M26526 4891l275 22c-5,-177 -2,-66 -37,-176l-54 -169c-131,22 -85,-50 -168,203 -28,87 -19,16 -16,120z"/>
   <path class="fil6" d="M29099 24273c-33,17 -125,-8 -118,329l248 2c-1,-91 -3,-131 -31,-218 -52,-162 36,-65 -99,-113z"/>
   <path class="fil6" d="M24372 15509l290 4 -79 -332c-199,32 -100,-38 -149,121l-41 90c-29,84 -12,16 -21,117z"/>
   <path class="fil6" d="M12221 5031c85,49 94,32 247,30 -21,-329 -42,-276 -116,-334 -59,32 -111,-56 -131,304z"/>
   <path class="fil7" d="M18884 4911l286 25 -79 -343c-214,34 -84,-34 -149,114l-48 132c-23,89 2,-75 -10,72z"/>
   <path class="fil7" d="M33596 5273l259 1c-28,-394 -86,-304 -204,-315l-55 314z"/>
   <path class="fil0" d="M40682 12369l0 -186 -44 -42c-264,-194 -214,141 -214,224l258 4z"/>
   <path class="fil6" d="M21435 22564l252 17c-3,-134 -9,-236 -113,-330 -47,21 -127,-65 -139,313z"/>
   <path class="fil7" d="M20607 11315c30,18 16,24 83,35 39,6 107,2 149,2 15,-117 -16,-243 -54,-334 -196,34 -202,211 -178,297z"/>
   <path class="fil1" d="M38878 6589c37,172 78,185 261,182 62,-66 81,-87 112,-189 -151,-55 -226,-62 -373,7z"/>
   <path class="fil6" d="M37252 9695l284 7 -100 -331c-180,20 -62,-68 -160,195 -37,101 -24,4 -24,129z"/>
   <path class="fil7" d="M31432 11937l235 -3c18,-215 -29,-284 -133,-325 -94,71 -47,-12 -88,141 -15,55 -25,96 -14,187z"/>
   <path class="fil1" d="M17497 6385c91,209 299,246 360,-10 -131,-104 -252,-100 -360,10z"/>
   <path class="fil6" d="M22877 5158c117,63 52,46 286,40 -4,-184 -28,-88 -62,-217 -35,-131 31,-89 -125,-110 -29,55 -27,137 -27,137 -2,4 -7,13 -9,17 -20,45 -43,22 -63,133z"/>
   <path class="fil7" d="M7608 24363l229 0c19,-187 -20,-257 -96,-322 -103,34 -156,90 -133,322z"/>
   <path class="fil6" d="M34986 26124l287 -2 -34 -141c-4,-8 -12,-16 -16,-23 -3,-7 -10,-15 -13,-21 -2,-5 -7,-14 -8,-18 -31,-89 50,-73 -90,-129 -132,114 -19,18 -58,131l-35 60c-41,99 -26,3 -33,143z"/>
   <path class="fil6" d="M30351 18662l248 4c-7,-175 -10,-272 -135,-331 -91,71 -109,181 -113,327z"/>
   <path class="fil6" d="M29179 11534c324,37 244,-13 277,-31l-109 -282c-224,26 -96,45 -98,123 -2,74 -63,-6 -70,190z"/>
   <path class="fil1" d="M24724 19582c97,180 306,201 354,-52 -149,-62 -261,-89 -354,52z"/>
   <path class="fil2" d="M1526 23659l175 91c-105,94 -198,115 -175,-91zm150 189c16,-19 53,-57 71,-76 91,-579 -685,102 -71,76z"/>
   <path class="fil1" d="M3352 19323c29,164 70,180 257,139l93 -131c-117,-93 -247,-119 -350,-8z"/>
   <path class="fil2" d="M20283 8958l7 -136 147 76c123,123 6,1 8,38l-162 22zm0 0c47,71 -63,5 54,53 18,7 74,15 95,18l38 -34c4,-7 28,-36 32,-47 71,-190 -45,-235 -231,-214 -133,282 9,222 12,224z"/>
   <path class="fil2" d="M11888 24359l178 92c-72,65 -29,55 -144,61 -39,-53 -68,-60 -34,-153zm-18 -60c-152,147 66,369 211,212 127,-138 -58,-360 -211,-212z"/>
   <path class="fil1" d="M4903 6624c67,179 60,215 303,133l29 -138c-149,-60 -188,-63 -332,5z"/>
   <path class="fil2" d="M22888 23883l194 88c-115,113 -159,93 -194,-88zm-51 51c60,171 116,184 279,106l16 -214 -189 -52c-99,85 -64,13 -106,160z"/>
   <path class="fil0" d="M33244 24604l206 53c-128,172 -171,103 -206,-53zm27 -83c-181,127 -4,345 160,245 156,-95 34,-381 -160,-245z"/>
   <path class="fil2" d="M20005 18790l178 75 -116 87c-69,-59 -102,-46 -62,-162zm172 -91l-191 -5c-226,401 429,386 191,5z"/>
   <path class="fil0" d="M19057 23381c-104,125 -178,105 -199,-82l199 82zm40 -111c-178,-156 -339,-40 -277,132 59,165 312,134 277,-132z"/>
   <path class="fil1" d="M11368 14615c173,45 211,30 307,-91 -67,-59 -235,-112 -319,-144l12 235z"/>
   <path class="fil1" d="M4090 24595c141,102 187,132 320,-33 -66,-71 -218,-112 -312,-144l-8 177z"/>
   <path class="fil1" d="M36935 23924c-646,-185 -125,501 0,0z"/>
   <path class="fil0" d="M40426 23678c-161,-6 -167,1 -185,-156l192 52 -7 104zm0 0c13,-5 127,63 39,-227 -115,-35 -240,-63 -266,80 -18,102 34,194 149,185 81,-7 61,-26 78,-38z"/>
   <path class="fil1" d="M26283 6842c62,234 275,242 332,23 -85,-48 -228,-93 -332,-23z"/>
   <path class="fil1" d="M33053 14749c-34,-24 18,-2 -76,-44l-227 -95c-92,248 158,354 303,139z"/>
   <path class="fil2" d="M21803 17631c23,9 94,28 102,32 75,40 43,22 80,74 -157,90 -169,48 -182,-106zm-42 -46c-25,200 45,265 243,213 127,-237 -61,-321 -243,-213z"/>
   <path class="fil1" d="M25486 24639c-50,287 203,359 303,144l-159 -75c-53,-20 -100,-47 -144,-69z"/>
   <path class="fil0" d="M19170 11807l198 31c-47,-82 -154,27 -181,-182l245 116 -17 -205c-228,-49 -300,19 -245,240z"/>
   <path class="fil6" d="M28730 6491c-157,79 -111,66 -124,205l286 0c-17,-148 22,-169 -162,-205z"/>
   <path class="fil8" d="M40682 12082l0 -328 -148 34c-54,173 -43,79 -3,239 49,32 69,41 151,55z"/>
   <path class="fil1" d="M15451 23862c66,-73 26,13 94,-112 -73,-110 -163,-129 -309,-37 20,127 67,161 215,149z"/>
   <path class="fil5" d="M1516 4852l163 4c0,0 31,-5 79,-4 -37,-107 -20,-113 -34,-231 -347,33 -94,-35 -208,231z"/>
   <path class="fil5" d="M38911 20815c10,1 112,19 113,19 101,-5 24,7 112,-33 -42,-217 62,-178 -187,-211 -22,114 2,115 -38,225z"/>
   <path class="fil2" d="M7224 6457l279 3c-12,-148 32,-73 -56,-157l-167 -24c-60,87 -52,40 -56,178z"/>
   <path class="fil2" d="M10093 11413c12,21 26,18 29,30 9,32 111,-6 54,134 -5,1 -13,-8 -15,-2 -27,88 11,-53 -80,21 -106,87 10,-48 -37,54 78,60 23,61 242,56 -7,-114 -30,-220 -61,-316l-132 23z"/>
   <path class="fil5" d="M5153 4542c163,31 75,38 234,-10 -56,-217 53,-174 -191,-210 -26,133 7,103 -43,220z"/>
   <path class="fil5" d="M13656 25755c72,33 -6,20 85,22 5,0 100,-8 121,-9l-31 -232c-196,36 -179,40 -175,219z"/>
   <path class="fil0" d="M20046 14455c-221,-31 -160,13 -171,110 97,50 165,50 263,0 -14,-136 21,-64 -43,-104 -103,-64 8,2 -49,-6z"/>
   <path class="fil0" d="M17521 20703l269 0c-21,-166 -16,-118 -106,-133 -215,-35 -153,18 -163,133z"/>
   <path class="fil5" d="M40306 5010l199 0c-18,-180 23,-187 -175,-193l-24 193z"/>
   <path class="fil2" d="M7784 11312l264 -13c17,-144 34,-111 -71,-129 -17,-3 -134,13 -171,29l-22 113z"/>
   <path class="fil0" d="M40505 5010l-199 0c-47,78 -30,86 -22,138l243 0 -22 -138z"/>
   <path class="fil0" d="M3004 15274l259 -19 -13 -99 -171 -28c-102,24 -65,-24 -75,146z"/>
   <path class="fil0" d="M13862 25768c-21,1 -116,9 -121,9 -91,-2 -13,11 -85,-22 -43,40 -52,-106 -45,132l270 2 -19 -121z"/>
   <path class="fil0" d="M5416 4677l-29 -145c-159,48 -71,41 -234,10l4 126 259 9z"/>
   <path class="fil0" d="M16008 9329c-191,7 -108,-68 -122,125l254 -17c-8,-154 -28,-105 -107,-109 -7,0 -18,0 -25,1z"/>
   <path class="fil0" d="M20749 17382l246 3c15,-147 -43,-124 -123,-124 -71,0 -140,-27 -123,121z"/>
   <path class="fil2" d="M8975 18404l232 14c-9,-147 46,-85 -45,-130 -78,-39 -57,-1 -73,56l-57 -136 -57 196z"/>
   <path class="fil0" d="M1758 4852c-48,-1 -79,4 -79,4l-163 -4 0 112 248 0 -6 -112z"/>
   <path class="fil0" d="M39136 20801c-88,40 -11,28 -112,33 -1,0 -103,-18 -113,-19l-1 122 248 -3 -22 -133z"/>
   <path class="fil1" d="M39244 25853c77,110 87,110 214,37 -21,-77 29,-75 -76,-100 -65,-16 -136,18 -138,63z"/>
   <path class="fil1" d="M10957 21420c20,82 -5,112 102,112 103,-1 93,-51 112,-106 -78,-43 -153,-55 -214,-6z"/>
   <path class="fil1" d="M9413 8773c18,61 -39,98 98,97 137,-1 81,-38 99,-97 -99,-70 -99,-69 -197,0z"/>
   <path class="fil1" d="M22324 6228c23,56 -39,87 101,91 133,4 75,-27 101,-91 -94,-71 -97,-80 -202,0z"/>
   <path class="fil1" d="M38780 17811c-93,-103 -76,-75 -213,-50 38,71 37,240 213,50z"/>
   <path class="fil1" d="M17858 25599c72,133 119,161 219,32 -54,-73 -160,-100 -219,-32z"/>
   <path class="fil1" d="M32454 21758c90,-3 85,-50 110,-129l-226 8c43,72 -1,125 116,121z"/>
   <path class="fil1" d="M30798 8995c17,53 2,107 107,101 95,-6 69,-24 95,-92 -92,-62 -72,-75 -202,-9z"/>
   <path class="fil1" d="M939 6007c81,101 64,117 191,36 -11,-46 97,-68 -71,-92 -56,-8 -115,7 -120,56z"/>
   <path class="fil1" d="M40426 23678l7 -104 -192 -52c18,157 24,150 185,156z"/>
   <path class="fil1" d="M36484 5232c20,55 -36,102 101,89 87,-8 81,-32 86,-99 -120,-48 -79,-59 -187,10z"/>
   <path class="fil4" d="M38568 17942c7,9 15,22 19,29l93 167 98 -200 -210 4z"/>
   <path class="fil1" d="M15097 5011c69,114 134,137 201,0 -87,-72 -95,-91 -201,0z"/>
   <path class="fil1" d="M33244 24604c35,156 78,225 206,53l-206 -53z"/>
   <path class="fil1" d="M21905 17663c-8,-4 -79,-23 -102,-32 13,154 25,196 182,106 -37,-52 -5,-34 -80,-74z"/>
   <path class="fil4" d="M11922 24512c115,-6 72,4 144,-61l-178 -92c-34,93 -5,100 34,153z"/>
   <path class="fil1" d="M19057 23381l-199 -82c21,187 95,207 199,82z"/>
   <path class="fil1" d="M20067 18952l116 -87 -178 -75c-40,116 -7,103 62,162z"/>
   <path class="fil1" d="M1701 23750l-175 -91c-23,206 70,185 175,91z"/>
   <path class="fil1" d="M17214 17523c-12,98 -41,67 81,133l117 -99 -198 -34z"/>
   <path class="fil1" d="M23082 23971l-194 -88c35,181 79,201 194,88z"/>
   <path class="fil1" d="M20283 8958l162 -22c-2,-37 115,85 -8,-38l-147 -76 -7 136z"/>
  </g>
  <path class="fil9" d="M21286 17560c131,-47 290,-145 412,-218 147,-88 244,-130 384,-202 175,-89 616,-381 784,-414l628 1633c60,167 176,385 212,561l-2284 -1252c-49,-25 -36,-15 -70,-42 -5,-4 -12,-11 -17,-15 -5,-4 -12,-12 -16,-16l-33 -35zm-3861 1360l420 -1106c74,-188 138,-333 218,-535l230 -553c301,125 1283,742 1552,834l-901 518c-120,66 -199,117 -296,172 -191,109 -407,219 -593,331l-630 339zm1339 -2720c40,-150 332,-297 451,-398l561 -466c74,-67 679,-492 776,-617 316,207 626,497 916,728l243 179c135,86 244,221 347,292 110,76 275,153 309,282 -101,24 -1764,959 -1787,974 -134,-38 -315,-166 -456,-240 -127,-67 -335,-170 -452,-245l-908 -489zm2962 -2392c16,96 87,259 117,349l372 971c-159,-66 -1003,-777 -1078,-855l589 -465zm-2373 160c8,-18 27,-64 35,-78l35 -56c2,-11 9,-13 13,-18l427 338c72,50 74,59 131,119 -172,180 -339,267 -521,428l-463 375c-64,44 -3,14 -94,52l437 -1160zm1195 -3060c75,73 80,124 132,283l758 1938 -886 697 -859 -697 855 -2221zm375 -1028c84,-35 88,-41 168,-87 270,-157 466,-406 512,-737 13,-92 -1,40 4,-52l-17 -313c-115,-491 -529,-836 -1039,-830 -511,6 -893,336 -1009,852 -114,508 181,968 666,1167 -7,95 -120,314 -167,451l-710 1828c-60,156 -128,295 -188,452l-1063 2732c-309,711 -596,1538 -888,2262 -64,158 -128,301 -184,458l-350 905c-147,350 -373,749 -199,960 275,333 819,-132 1277,-385l2561 -1421c6,-3 13,-6 19,-9 277,-132 170,-189 589,45l1300 732c146,83 287,145 417,226 127,79 284,164 414,231l1014 573c163,92 315,192 497,102 77,-37 122,-73 160,-144 96,-184 -15,-366 -74,-513l-2865 -7311c-119,-339 -836,-2060 -845,-2174z"/>
  <path class="fil9" d="M24059 12705c164,-18 301,-187 378,-290 66,-87 110,-111 173,-190 329,-413 700,-1047 877,-1546 392,-1101 407,-2448 1,-3548 -128,-347 -293,-619 -454,-935 -65,-126 -208,-319 -281,-418 -148,-198 -477,-661 -718,-670 -275,-10 -357,195 -357,409 0,144 281,352 460,596 263,357 183,243 405,628 849,1475 685,3498 -309,4830 -325,437 -581,552 -558,835 14,164 191,319 383,299z"/>
  <path class="fil9" d="M17427 5601c164,-334 -280,-722 -645,-313 -291,325 -352,434 -608,783 -89,120 -170,300 -249,453 -271,524 -409,902 -520,1570 -134,798 -48,1737 197,2459 217,641 653,1405 1014,1771 103,104 187,275 349,347 66,30 91,39 154,35 12,-1 126,-33 130,-35 61,-25 149,-97 177,-151 111,-216 -37,-391 -146,-496 -485,-464 -962,-1343 -1113,-2038 -273,-1253 -88,-2568 634,-3619 195,-284 590,-694 626,-766z"/>
  <path class="fil9" d="M18429 6549c79,-355 -238,-526 -469,-419 -138,64 -193,161 -273,259 -889,1076 -1156,2210 -793,3623 112,437 443,1026 740,1352 149,164 306,451 627,310 167,-73 326,-344 -5,-649 -302,-279 -677,-978 -748,-1433 -1,-9 -2,-15 -3,-24 -49,-286 -104,-564 -71,-867 67,-622 203,-1053 550,-1567 242,-359 169,-210 356,-427 22,-26 42,-51 58,-80 33,-59 18,-20 31,-78z"/>
  <path class="fil9" d="M23691 8649c101,794 -268,1829 -787,2349 -81,80 -184,138 -210,308 -59,368 352,525 597,297l405 -489 386 -671c7,-15 20,-38 28,-56 2,-7 5,-14 7,-21l109 -309c359,-1249 158,-2304 -520,-3344 -84,-130 -383,-497 -498,-564 -262,-151 -553,53 -519,344 18,152 121,236 204,311 116,103 145,176 234,294 337,448 493,992 564,1551z"/>
  <path class="fil9" d="M19415 7525c65,-209 -77,-374 -219,-427 -412,-154 -883,778 -966,1086 -192,711 -81,1691 392,2192 103,109 216,303 351,342 215,62 390,-82 440,-233 97,-292 -155,-362 -313,-642 -346,-615 -329,-796 -212,-1444 86,-475 470,-695 527,-874z"/>
  <path class="fil9" d="M22195 9533c-277,624 -538,599 -494,890 27,179 179,317 388,308 121,-6 227,-122 311,-216l149 -187c4,-5 9,-12 12,-16 158,-207 324,-576 371,-821 175,-919 16,-1456 -493,-2149 -394,-535 -770,-133 -744,127 12,126 70,161 132,231 434,495 648,1205 368,1833z"/>
  <path class="fil10" d="M1787 7541l2849 0 1117 1764 -1117 1756 -2849 0 0 -3520zm1052 518l0 2484 1069 0 801 -1238 -801 -1246 -1069 0zm7243 -518l-3998 0 0 3520 1077 0 0 -1497 1861 0 0 1497 1060 0 0 -3520zm-2905 518l1820 0 0 979 -1820 0 0 -979zm4596 1327l2177 0 453 -518 -2630 0 0 -809 2331 0 445 -518 -3804 0 0 3520 1028 0 0 -1675z"/>
  <path class="fil10" d="M30731 10543l-2888 0 0 -2484 2435 0 445 -518 -3957 0 0 3520 3512 0 453 -518zm4491 518l-3139 0 -858 -971 0 -2549 3997 0 0 3520zm-1052 -3002l-1893 0 0 1804 599 680 1294 0 0 -2484zm1716 3002l1052 0 0 -2015 1117 712 1124 -712 0 2015 1044 0 0 -3520 -2168 1408 -2169 -1408 0 3520z"/>
  <path class="fil10" d="M3251 23162l0 -461 -897 0 0 -223 70 -80 727 0 138 -161 -1113 0 -147 173 0 451 891 0 0 238 -57 68 -877 0 140 160 982 0 143 -165zm1443 165l-972 0 -265 -300 0 -790 1237 0 0 1090zm-325 -929l-587 0 0 558 186 211 401 0 0 -769zm1590 769l-734 0 0 -930 -325 0 0 1090 919 0 140 -160zm1373 -930l-318 0 0 930 -581 0 0 -930 -323 0 0 1090 1222 0 0 -1090zm1426 930l-895 0 0 -769 755 0 137 -161 -1225 0 0 1090 1088 0 140 -160zm200 -930l0 1090 326 0 0 -1090 -326 0zm1817 1090l-972 0 -266 -300 0 -790 1238 0 0 1090zm-326 -929l-586 0 0 558 185 211 401 0 0 -769zm1749 929l0 -1090 -321 0 0 589 -897 -589 0 1090 326 0 0 -594 892 594zm1285 -160l-754 0 0 -303 824 0 0 -161 -824 0 0 -305 759 0 138 -161 -1223 0 0 1090 1220 0 -140 -160zm1468 -5l0 -461 -897 0 0 -223 70 -80 727 0 138 -161 -1113 0 -148 173 0 451 892 0 0 238 -57 68 -877 0 140 160 982 0 143 -165zm1724 5l-754 0 0 -303 824 0 0 -161 -824 0 0 -305 759 0 138 -161 -1223 0 0 1090 1220 0 -140 -160zm1513 160l0 -1090 -321 0 0 589 -897 -589 0 1090 326 0 0 -594 892 594zm1816 -929l138 -161 -1413 0 138 161 408 0 0 929 326 0 0 -929 403 0zm1321 769l-754 0 0 -303 824 0 0 -161 -824 0 0 -305 759 0 138 -161 -1223 0 0 1090 1220 0 -140 -160zm1355 0l-734 0 0 -930 -326 0 0 1090 920 0 140 -160zm1233 0l-754 0 0 -303 824 0 0 -161 -824 0 0 -305 759 0 138 -161 -1223 0 0 1090 1220 0 -140 -160zm1523 0l-894 0 0 -769 754 0 138 -161 -1226 0 0 1090 1088 0 140 -160zm1390 160l-972 0 -265 -300 0 -790 1237 0 0 1090zm-325 -929l-586 0 0 558 185 211 401 0 0 -769zm531 929l326 0 0 -624 345 221 349 -221 0 624 323 0 0 -1090 -672 436 -671 -436 0 1090zm2768 -1090l-318 0 0 930 -581 0 0 -930 -323 0 0 1090 1222 0 0 -1090zm1416 1090l0 -1090 -321 0 0 589 -897 -589 0 1090 326 0 0 -594 892 594zm253 -1090l0 1090 326 0 0 -1090 -326 0zm1806 930l-894 0 0 -769 754 0 138 -161 -1225 0 0 1090 1087 0 140 -160zm1391 -930l-1238 0 0 1090 333 0 0 -463 577 0 0 463 328 0 0 -1090zm-900 161l564 0 0 303 -564 0 0 -303zm2333 769l-895 0 0 -769 754 0 138 -161 -1225 0 0 1090 1087 0 141 -160zm200 -930l0 1090 326 0 0 -1090 -326 0zm1817 1090l-972 0 -266 -300 0 -790 1238 0 0 1090zm-326 -929l-586 0 0 558 185 211 401 0 0 -769zm1749 929l0 -1090 -321 0 0 589 -897 -589 0 1090 326 0 0 -594 892 594z"/>
 </g>
</svg>
